<svg id="Logo_CAEN" data-name="Logo CAEN" xmlns="http://www.w3.org/2000/svg" xmlns:xlink="http://www.w3.org/1999/xlink" viewBox="0 0 674.91 577.58"><defs><style>.cls-1{stroke:#fff;fill:url(#Dégradé_sans_nom_62);}.cls-1,.cls-9{stroke-linecap:square;stroke-miterlimit:10;stroke-width:0;}.cls-2{fill:#fff;}.cls-3{fill:#1d1d1b;}.cls-4{fill:#3dbaec;}.cls-5{fill:#e52421;}.cls-6{fill:#2d3088;}.cls-7{fill:#572677;}.cls-8{fill:#991914;}.cls-9{fill:none;stroke:#991914;}</style><radialGradient id="Dégradé_sans_nom_62" cx="167.63" cy="244.8" r="131.44" gradientUnits="userSpaceOnUse"><stop offset="0.15" stop-color="#ffef26"/><stop offset="0.19" stop-color="#fff035"/><stop offset="0.42" stop-color="#fff57b"/><stop offset="0.61" stop-color="#fff9b2"/><stop offset="0.78" stop-color="#fffcda"/><stop offset="0.92" stop-color="#fffdf2"/><stop offset="1" stop-color="#fffefb"/></radialGradient></defs><title>CG 21 004 - Logo 2022 Les Archers de CAEN FINAL</title><ellipse class="cls-1" cx="167.63" cy="244.8" rx="131.41" ry="131.47"/><polygon class="cls-2" points="522.51 234.86 522.63 244.94 522.33 255.03 521.67 265.05 520.52 275.01 519.02 284.97 517.07 294.81 514.72 304.59 512.01 314.31 508.88 323.84 505.31 333.27 501.39 342.51 497.11 351.62 490.04 356.7 482.67 361.41 475.13 365.75 467.4 369.8 459.51 373.48 451.47 376.73 446.36 378.58 451.9 370.7 457.08 362.56 461.91 354.15 466.38 345.59 470.48 336.83 474.23 327.89 477.61 318.84 480.56 309.6 483.1 300.24 485.27 290.82 487.02 281.29 488.35 271.75 489.32 262.09 489.8 252.43 489.93 242.77 489.62 233.11 488.95 223.44 487.8 213.85 486.3 204.25 484.37 194.78 482.02 185.42 479.29 176.11 476.16 166.94 472.6 157.94 468.73 149.07 464.45 140.37 459.81 131.93 454.8 123.65 449.48 115.56 443.81 107.71 437.78 100.17 431.44 92.86 424.79 85.8 417.85 79.04 410.67 72.58 403.18 66.48 395.46 60.67 387.5 55.19 379.29 50.06 370.83 45.28 362.27 40.87 353.45 36.84 344.52 33.21 335.41 29.95 326.17 27.05 316.81 24.58 307.39 22.47 297.86 20.83 288.26 19.57 278.67 18.66 269.01 18.24 259.35 18.17 249.63 18.6 240.04 19.39 230.45 20.59 220.91 22.22 211.43 24.22 202.08 26.63 192.85 29.46 183.73 32.66 174.73 36.29 165.92 40.22 157.3 44.55 148.84 49.33 140.63 54.41 132.61 59.77 124.82 65.57 117.27 71.61 110.03 78.01 103.09 84.7 96.39 91.71 90 99.02 83.96 106.57 78.23 114.36 72.8 122.38 67.79 130.6 63.08 139.04 63.07 139.04 62.11 135.24 66.76 126.3 71.77 117.61 77.14 109.1 82.81 100.82 88.9 92.81 95.24 85 101.94 77.52 108.95 70.28 116.24 63.4 123.8 56.76 131.64 50.48 139.72 44.5 148.06 38.89 156.63 33.57 165.38 28.68 174.32 24.1 183.49 19.92 192.78 16.12 202.19 12.74 211.8 9.73 221.51 7.13 231.28 4.9 241.19 3.08 251.15 1.7 261.17 0.72 271.19 0.19 281.27 0 291.29 0.3 301.31 0.97 311.32 2.05 321.22 3.63 331.12 5.5 340.84 7.86 350.55 10.56 360.09 13.71 369.51 17.21 378.74 21.14 387.86 25.43 396.72 30.08 405.48 35.14 413.93 40.52 422.2 46.25 430.22 52.29 437.95 58.69 445.44 65.4 452.68 72.39 459.56 79.69 466.14 87.3 472.48 95.16 478.39 103.25 484 111.58 489.25 120.14 494.14 128.9 498.74 137.89 502.9 147.07 506.63 156.37 510.01 165.85 513.04 175.46 515.64 185.17 517.8 194.96 519.62 204.85 521 214.81 521.97 224.84 522.51 234.86"/><polygon class="cls-3" points="489.62 233.11 489.93 242.77 489.8 252.43 489.32 262.09 488.35 271.75 487.02 281.29 485.27 290.82 483.1 300.24 480.56 309.6 477.61 318.84 474.23 327.89 470.48 336.83 466.38 345.59 461.91 354.15 457.08 362.56 451.9 370.7 446.36 378.58 443.26 379.7 434.93 382.23 426.49 384.41 417.92 386.16 409.34 387.54 400.65 388.51 391.96 389.05 383.27 389.24 377.74 389.09 384.12 382.78 390.26 376.2 396.12 369.32 401.68 362.19 406.86 354.76 411.69 347.15 416.22 339.36 420.45 331.34 424.26 323.19 427.69 314.8 430.77 306.34 433.42 297.71 435.72 288.95 437.65 280.14 439.16 271.2 440.25 262.27 440.96 253.28 441.28 244.22 441.21 235.23 440.66 226.17 439.83 217.16 438.5 208.23 436.8 199.36 434.7 190.6 432.22 181.91 429.39 173.34 426.12 164.89 422.5 156.61 418.52 148.53 414.17 140.62 409.52 132.88 404.51 125.34 399.15 118.09 393.47 111.09 387.5 104.33 381.22 97.81 374.64 91.59 367.82 85.73 360.69 80.12 353.39 74.86 345.85 69.91 338.06 65.33 330.1 61.04 321.94 57.19 313.62 53.68 305.17 50.53 296.6 47.76 287.91 45.4 279.1 43.42 270.16 41.85 261.23 40.64 252.24 39.85 243.25 39.42 234.19 39.49 225.19 39.92 216.21 40.7 207.27 41.9 198.4 43.53 189.59 45.58 180.89 48 172.32 50.78 163.88 53.91 155.54 57.49 147.39 61.4 139.49 65.7 131.71 70.28 124.15 75.29 116.86 80.54 109.78 86.15 102.97 92.13 96.46 98.36 90.18 104.87 84.26 111.63 78.59 118.69 73.28 126 68.27 133.49 63.62 141.22 63.07 139.04 63.08 139.04 67.79 130.6 72.8 122.38 78.23 114.36 83.96 106.57 90 99.02 96.39 91.71 103.09 84.7 110.03 78.01 117.27 71.61 124.82 65.57 132.61 59.77 140.63 54.41 148.84 49.33 157.3 44.55 165.92 40.22 174.73 36.29 183.73 32.66 192.85 29.46 202.08 26.63 211.43 24.22 220.91 22.22 230.45 20.59 240.04 19.39 249.63 18.6 259.35 18.17 269.01 18.24 278.67 18.66 288.26 19.57 297.86 20.83 307.39 22.47 316.81 24.58 326.17 27.05 335.41 29.95 344.52 33.21 353.45 36.84 362.27 40.87 370.83 45.28 379.29 50.06 387.5 55.19 395.46 60.67 403.18 66.48 410.67 72.58 417.85 79.04 424.79 85.8 431.44 92.86 437.78 100.17 443.81 107.71 449.48 115.56 454.8 123.65 459.81 131.93 464.45 140.37 468.73 149.07 472.6 157.94 476.16 166.94 479.29 176.11 482.02 185.42 484.37 194.78 486.3 204.25 487.8 213.85 488.95 223.44 489.62 233.11"/><polygon class="cls-4" points="441.21 235.23 441.28 244.22 440.96 253.28 440.25 262.27 439.16 271.2 437.65 280.14 435.72 288.95 433.42 297.71 430.77 306.34 427.69 314.8 424.26 323.19 420.45 331.34 416.22 339.36 411.69 347.15 406.86 354.76 401.68 362.19 396.12 369.32 390.26 376.2 384.12 382.78 377.74 389.09 374.58 388.99 365.88 388.39 357.19 387.37 348.63 385.92 340.11 384.11 331.67 381.86 323.34 379.28 315.18 376.31 312.51 375.19 318.86 369.85 324.96 364.19 330.82 358.14 336.31 351.87 341.5 345.34 346.39 338.58 350.92 331.58 355.14 324.34 358.94 316.91 362.39 309.3 365.47 301.51 368.18 293.6 370.48 285.57 372.41 277.48 373.86 269.27 374.99 260.94 375.66 252.61 375.91 244.27 375.79 235.95 375.24 227.62 374.28 219.28 372.95 211.07 371.13 202.92 368.96 194.83 366.43 186.87 363.47 179.07 360.15 171.41 356.47 163.92 352.36 156.61 347.95 149.55 343.19 142.67 338.12 136.03 332.7 129.68 326.95 123.59 320.98 117.79 314.65 112.3 308.12 107.1 301.31 102.27 294.3 97.81 287.06 93.64 279.63 89.83 271.97 86.4 264.25 83.38 256.27 80.72 248.25 78.49 240.1 76.62 231.89 75.11 223.62 74.08 215.3 73.41 206.97 73.24 198.63 73.36 190.3 73.96 181.98 74.99 173.77 76.38 165.62 78.19 157.6 80.42 149.63 83.02 141.85 85.98 134.24 89.36 126.75 93.11 119.51 97.21 112.45 101.67 105.57 106.5 98.99 111.63 92.71 117.07 86.62 122.8 80.88 128.85 75.38 135.18 70.25 141.77 65.49 148.58 65.46 148.58 63.62 141.22 68.27 133.49 73.28 126 78.59 118.69 84.26 111.63 90.18 104.87 96.46 98.36 102.97 92.13 109.78 86.15 116.86 80.54 124.15 75.29 131.71 70.28 139.49 65.7 147.39 61.4 155.54 57.49 163.88 53.91 172.32 50.78 180.89 48 189.59 45.58 198.4 43.53 207.27 41.9 216.21 40.7 225.19 39.92 234.19 39.49 243.25 39.42 252.24 39.85 261.23 40.64 270.16 41.85 279.1 43.42 287.91 45.4 296.6 47.76 305.17 50.53 313.62 53.68 321.94 57.19 330.1 61.04 338.06 65.33 345.85 69.91 353.39 74.86 360.69 80.12 367.82 85.73 374.64 91.59 381.22 97.81 387.5 104.33 393.47 111.09 399.15 118.09 404.51 125.34 409.52 132.88 414.17 140.62 418.52 148.53 422.5 156.61 426.12 164.89 429.39 173.34 432.22 181.91 434.7 190.6 436.8 199.36 438.5 208.23 439.83 217.16 440.66 226.17 441.21 235.23"/><polygon class="cls-5" points="375.79 235.95 375.91 244.27 375.66 252.61 374.99 260.94 373.86 269.27 372.41 277.48 370.48 285.57 368.18 293.6 365.47 301.51 362.39 309.3 358.94 316.91 355.14 324.34 350.92 331.58 346.39 338.58 341.5 345.34 336.31 351.87 330.82 358.14 324.96 364.19 318.86 369.85 312.51 375.19 307.09 372.93 299.25 369.19 291.52 365.14 284.04 360.68 276.74 355.91 269.68 350.84 262.85 345.41 256.27 339.66 261.4 334.53 266.18 329.1 270.71 323.37 274.87 317.45 278.67 311.3 282.18 304.95 285.25 298.43 288.03 291.73 290.39 284.85 292.37 277.91 294 270.78 295.2 263.66 296 256.48 296.42 249.23 296.35 241.99 296 234.74 295.15 227.55 293.94 220.37 292.37 213.31 290.32 206.37 287.96 199.49 285.19 192.78 282.05 186.25 278.6 179.92 274.75 173.76 270.58 167.85 266.06 162.17 261.29 156.74 256.16 151.54 250.78 146.72 245.17 142.19 239.26 137.96 233.16 134.03 226.82 130.53 220.31 127.33 213.66 124.5 206.84 122.08 199.91 120.02 192.85 118.34 185.72 117.07 178.53 116.22 171.29 115.74 164.06 115.68 156.8 115.98 149.63 116.77 142.45 117.92 135.39 119.42 128.38 121.35 121.5 123.72 114.81 126.37 108.22 129.45 101.89 132.88 95.66 136.69 89.75 140.79 84.02 145.27 78.53 150.03 73.33 155.04 68.45 160.42 65.46 148.58 65.49 148.58 70.25 141.77 75.38 135.18 80.88 128.85 86.62 122.8 92.71 117.07 98.99 111.63 105.57 106.5 112.45 101.67 119.51 97.21 126.75 93.11 134.24 89.36 141.85 85.98 149.63 83.02 157.6 80.42 165.62 78.19 173.77 76.38 181.98 74.99 190.3 73.96 198.63 73.36 206.97 73.24 215.3 73.41 223.62 74.08 231.89 75.11 240.1 76.62 248.25 78.49 256.27 80.72 264.25 83.38 271.97 86.4 279.63 89.83 287.06 93.64 294.3 97.81 301.31 102.27 308.12 107.1 314.65 112.3 320.98 117.79 326.95 123.59 332.7 129.68 338.12 136.03 343.19 142.67 347.95 149.55 352.36 156.61 356.47 163.92 360.15 171.41 363.47 179.07 366.43 186.87 368.96 194.83 371.13 202.92 372.95 211.07 374.28 219.28 375.24 227.62 375.79 235.95"/><path class="cls-2" d="M164.29,379.7l-1.57-.05q-4.4-.11-8.59,0l-8.58-.9-8.34-1.8-3.24-1.3-2.92-1.88-2.43-2.45-1.94-2.94-1.38-3.19-.73-3.43L124,357l.17-4.74.89-4.65,1.7-3.92L129,340l2.67-3.35,3.08-2.86,11.66-9,12.23-8.09,8.58-5.23,9-4.57,9.23-3.84,2.27-.74,2.35.08,2.27.82,1.78,1.55.57.66,19.51-2.05,19.6-1.3,19.6-.74-3.32-6.86-2.83-7.19L245,280.07l-1.7-7.43-1.22-7.6-.56-7.68,5.51-6.29,5.91-5.88,6.31-5.39,6.73-4.9,7.12-4.33,7.37-3.76,7.7-3.19,7.85-2.53,8.1-2,8.18-1.31,8.26-.65h8.34l8.26.65,8.18,1.31,2.35,6.13,1.79,6.29,1.21,6.37.73,6.53.57,4.9-.17,5.07-1,4.9-1,8.58,6.88,11.52,2.19,5.31,1.46,5.55.81,5.72.16,5.72-.57,5.8-1.21,5.63-1.86,5.4-1.54,2,9.72-4.33,6.88-3.76,7.13-3.19,7.37-2.69,7.61-2.05,7.69-1.55,7.78-.9,5.51-1.55,5.26-2.29,5-2.85,4.62-3.44,5.18-5,5.59-4.65,5.83-4.25,6.15-3.76,2.43-.49,2.19-1.23,1.7-2,10.53-4.73,10.77-4.17L492.1,258l11.17-3.26,11.26-2.62,37.82-12.41,2.19-5.64,2.83-5.31,3.48-4.9,3.65-3,4-2.69,4.29-2.21-3.4-1.22-3.08-1.8-2.75-2.29-2.35-2.77-1.86-3.11-6.73-10.7-7.29-10.37-7.77-10-8.34-9.56-8.75-9.07-9.31-8.57-9.64-8.09-10.12-7.6-10.53-7-10.77-6.46-11.18-5.88-11.5-5.31-9.07-7.51-9.64-7-10-6.37-10.45-5.63L397.5,74.78l-7.69-7.27-7.13-7.76-6.8-8.08-6.32-8.5-5.75-8.82-5.35-9.15-.64-2L357.65,21l.49-2.12,1.05-2,1.46-1.64,1.86-1.14,2.11-.57h2.19l2.1.57,1.87,1.14,1.53,1.56,5.51,6.61,5.91,6.13,6.32,5.8,6.72,5.31,7.05,4.82,7.37,4.33L435.4,64.9l24,15.6L483,96.6l23.33,16.5,23,17,8.75,7.6,8.34,8,7.94,8.41,7.61,8.75,7,9.14,6.73,9.48,6.15,9.8,1.62,2.86,1.13,3.11.57,3.26.08,3.27-.48,3.27-1,3.1-1.45,2.94,6.07-.73,6.08-.33,3.72.08,3.73.66,3.56,1.14,3.4,1.64,2.59,4.49,1.78,4.9,1.87,10,1,10.21,1.38,7.35.72,3.27v3.35l-.81,3.26-5.18,3.93-5.67,3.18,2.19,2.62,1.46,3,.81,3.27L613.66,290l1.78,11.69,1.13,11.84.41,11.85-.41,11.76-1.05,11.84-1.86,11.69-2.51,11.51-3.24,11.44-4,11.11-4.62,10.86L594,416.08l-8.83,20.83-9.23,20.75-3.57,9.48-3,9.64-2.51,9.8-1.87,10L563.45,509l-.73,12.5-.08,12.5-.09,2.86-.72,2.78-1.38,2.61-1.86,2.12L556.16,546l-2.11,1-2.27.41-2.35-.17-2.18-.73-2-1.23-1.53-1.71-1.14-2.13-1.37-10.13-.65-10.13.08-10.29,2.75-18.95L546.92,473l4.22-18.71,5-18.54,5.67-18.3,6.48-18.13,4.37-9.07,3.72-9.4,3.24-9.55,2.59-9.81,1.95-9.88,1.29-10.05.73-10.05.08-10.13-.64-10.12-1.22-10-2.1-7.68-1.22-7.93-.48-8-4.7-1.14L572.11,275l-3.64-1.87-2.11-.41-2.1.32-4,2-3.65,2.62L537,290.2l-6.07,4.08-5.75,4.5-5.43,4.9-8.83,8-9.15,7.6-5.5,4.33-5.84,3.68-6.23,3.1-6.48,2.45-6.72,1.8-8.67,3.59-8.42,4.25-8,4-8.34,3.35L432,352l-5.34,2.61-6.08,3.76-5.83,4.08-5.51,4.58-7.69,12.17-7.13,12.5-6.56,12.91L382,417.8l-5.26,13.39L372,444.92l-4,13.89-3.24,14.05-2.67,14.21-1.94,14.3L359,515.74l-2.75,2-2.27,2.45-1.78,2.94-1.22,3.1-.65,3.35-1.7,2L347.29,534l-.65,2.62-.08,2.69.57,2.62-.49,2.53-1.13,2.29-1.7,1.87-2.11,1.39-2.43.66-2.59.08-2.43-.66-2.19-1.38-1.7-1.8-17.25-29.74-3.24-4.82-2.59-5.14-1.94-5.56-1.22-5.63-.48-5.8,1-7,1.78-6.78L301,480.62,296,485.27l-4.61,6.21-5.19,5.64-5.67,5.14-5.34,3.35-5.67,2.54-6,1.79-4.62,10.7-3.64,11-1.95,1.55-2.18,1.15-2.43.65-2.51.08-2.43-.4-7.94-3.19L227.59,529l-2.35-1-2.51-.25-2.51.41-2.35,1.06-1.94,1.64-1.46,2-.89,2.45L212,525.06l-1-10.3-.41-10.29.16-10.37.81-10.3,1.3-10.29,2-10.13,2.51-10.05,3.32-13.72,4.05-13.56,4.62-13.32,1.21-3.67.57-3.84-.16-3.84-.73-3.84-1.38-3.6-2-3.34-2.51-3-3.16-2.36-3.48-1.8-3.81-1.23-4-.57-3.4-.08-21.87-1.31-21.94-.65Z" transform="translate(-85.18 -9.84)"/><polygon class="cls-6" points="262.87 295.92 261.92 296.74 260.99 297.6 260.07 298.45 259.18 299.34 258.29 300.23 257.4 301.12 256.55 302.04 255.69 302.96 254.87 303.89 254.01 304.84 253.22 305.8 252.4 306.75 251.64 307.74 250.85 308.73 250.09 309.72 249.33 310.74 248.94 311.43 248.51 312.09 248.05 312.78 247.59 313.44 247.12 314.1 246.63 314.72 246.14 315.35 245.64 315.97 245.12 316.6 244.59 317.19 244.03 317.79 243.47 318.35 242.91 318.91 242.31 319.47 241.72 320.02 241.13 320.55 240.5 321.05 239.88 321.57 239.25 322.07 238.59 322.53 237.93 322.99 237.28 323.45 236.62 323.88 235.92 324.31 235.5 324.64 235.07 324.93 234.64 325.23 234.18 325.49 233.72 325.76 233.26 325.99 232.79 326.25 232.33 326.45 231.84 326.65 231.34 326.84 230.85 327.04 230.36 327.17 229.83 327.34 229.34 327.47 228.81 327.57 228.31 327.67 227.79 327.73 227.26 327.8 226.73 327.86 226.21 327.9 225.68 327.9 225.15 327.9 224.63 327.9 224.1 327.86 223.6 327.8 223.08 327.73 222.55 327.67 222.02 327.57 221.53 327.47 221 327.34 220.51 327.17 219.59 327.17 218.66 327.17 217.74 327.14 216.82 327.07 215.9 327.01 214.97 326.91 214.05 326.81 213.13 326.71 212.24 326.58 211.32 326.42 210.43 326.25 209.5 326.05 208.62 325.86 207.69 325.66 206.8 325.43 205.91 325.2 205.03 324.93 204.17 324.64 203.28 324.34 202.42 324.04 201.53 323.71 200.68 323.38 199.82 323.02 199 322.66 198.14 322.26 196.72 322.59 195.27 322.92 193.86 323.29 192.44 323.65 191.03 324.01 189.61 324.41 188.19 324.83 186.81 325.26 185.39 325.69 184.01 326.15 182.63 326.65 181.24 327.14 179.86 327.63 178.47 328.16 177.12 328.69 175.77 329.25 174.39 329.81 173.07 330.4 171.72 330.99 170.37 331.62 169.05 332.25 167.74 332.87 166.42 333.53 165.13 334.22 163.81 334.91 162.53 335.6 161.25 336.33 159.99 337.05 158.71 337.78 157.46 338.54 156.21 339.33 154.95 340.12 153.74 340.91 152.52 341.73 151.3 342.55 150.11 343.38 148.93 344.23 147.74 345.12 146.55 345.98 145.4 346.9 144.05 347.2 142.73 347.46 141.38 347.72 140.06 347.99 138.71 348.22 137.36 348.42 136.01 348.61 134.66 348.81 133.31 348.98 131.96 349.11 130.61 349.24 129.26 349.37 127.88 349.47 126.53 349.57 125.17 349.63 123.79 349.7 122.44 349.73 121.09 349.73 119.71 349.77 118.36 349.73 117 349.7 115.62 349.67 114.27 349.6 112.92 349.54 111.54 349.44 110.19 349.34 108.84 349.21 107.48 349.07 106.13 348.91 104.78 348.75 103.43 348.55 102.08 348.35 100.73 348.12 99.38 347.89 98.06 347.63 96.71 347.36 95.39 347.1 96.35 347.56 97.31 347.99 98.29 348.45 99.28 348.88 100.27 349.27 101.26 349.67 102.25 350.03 103.24 350.39 104.26 350.75 105.28 351.08 106.3 351.41 107.32 351.71 108.34 351.97 109.4 352.24 110.42 352.5 111.47 352.73 112.49 352.96 113.55 353.16 114.6 353.36 115.66 353.52 116.71 353.69 117.76 353.82 118.82 353.95 119.9 354.05 120.96 354.15 122.01 354.21 123.07 354.28 124.15 354.31 125.21 354.34 126.3 354.38 127.35 354.34 128.4 354.34 129.49 354.28 130.54 354.25 131.6 354.18 132.69 354.08 133.74 353.98 134.79 353.85 135.85 353.72 136.9 353.55 137.96 353.39 139.01 353.22 140.06 352.99 141.12 352.8 142.14 352.57 143.19 352.3 144.22 352.04 145.27 351.77 146.29 351.48 147.31 351.15 148.33 350.82 148.73 350.79 149.16 350.75 149.55 350.75 149.98 350.75 150.38 350.79 150.8 350.82 151.2 350.89 151.59 350.95 152.02 351.05 152.42 351.15 152.81 351.25 153.21 351.38 153.57 351.55 153.97 351.71 154.33 351.87 154.69 352.07 155.05 352.3 155.38 352.5 155.74 352.73 156.07 352.99 156.4 353.26 156.7 353.52 157 353.82 157.29 354.11 157.56 354.41 159.34 352.7 161.08 350.99 162.83 349.27 164.54 347.53 166.29 345.78 167.97 344.04 169.68 342.26 170.14 341.89 170.63 341.56 171.13 341.24 171.62 340.91 172.12 340.61 172.64 340.31 173.17 340.02 173.7 339.75 174.26 339.52 174.78 339.29 175.34 339.06 175.91 338.87 176.47 338.67 177.06 338.5 177.62 338.37 178.21 338.21 178.77 338.11 179 338.4 179.23 338.73 179.43 339.06 179.63 339.39 179.79 339.75 179.96 340.12 180.12 340.48 180.25 340.84 180.38 341.2 180.48 341.6 180.58 341.96 180.65 342.36 180.71 342.75 180.75 343.11 180.78 343.51 180.78 343.9 180.78 344.3 180.75 344.69 180.71 345.09 180.68 345.49 180.62 345.85 180.52 346.24 180.42 346.6 180.32 347 180.52 347.03 180.68 347.03 180.88 347.03 181.08 347.03 181.24 347 181.44 346.97 181.6 346.9 181.8 346.83 181.97 346.74 182.13 346.64 182.26 346.54 182.43 346.41 182.56 346.27 182.69 346.14 182.79 346.01 182.89 345.85 182.99 345.68 183.05 345.52 183.12 345.32 183.41 344.93 183.68 344.56 184.01 344.17 184.31 343.81 184.63 343.44 184.96 343.11 185.29 342.78 185.66 342.45 186.02 342.16 186.41 341.86 186.78 341.56 187.07 341.43 187.37 341.33 187.66 341.24 187.96 341.17 188.26 341.1 188.55 341.07 188.88 341.04 189.18 341 189.51 341 189.81 341.04 190.1 341.07 190.43 341.14 190.73 341.2 191.03 341.3 191.32 341.4 191.62 341.5 191.88 341.63 192.15 341.8 192.41 341.96 192.67 342.13 192.94 342.32 193.17 342.52 193.26 342.69 193.4 342.85 193.46 343.05 193.56 343.21 193.59 343.41 193.66 343.61 193.69 343.81 193.69 344 193.69 344.2 193.66 344.4 193.63 344.6 193.59 344.79 194.45 344.66 195.31 344.5 196.13 344.33 196.99 344.17 197.84 343.97 198.67 343.77 199.52 343.54 200.35 343.28 201.17 343.01 201.99 342.75 202.78 342.45 203.61 342.13 204.4 341.83 205.22 341.47 205.59 341.3 205.95 341.1 206.28 340.91 206.64 340.71 206.97 340.48 207.3 340.25 207.59 339.98 207.89 339.72 208.19 339.46 208.48 339.16 208.75 338.87 209.01 338.57 209.24 338.24 209.47 337.91 209.7 337.58 209.9 337.22 210.1 336.89 210.3 336.53 210.43 336.13 210.59 335.77 210.72 335.37 210.86 335.01 210.95 334.62 211.02 334.22 211.09 333.82 211.15 333.43 211.19 333.04 211.22 332.61 211.22 332.21 211.22 331.82 211.19 331.42 211.12 331.03 211.51 331.03 211.91 331.06 212.27 331.09 212.67 331.16 213.06 331.22 213.43 331.32 213.79 331.42 214.15 331.55 214.51 331.69 214.88 331.85 215.24 332.01 215.57 332.18 215.9 332.38 216.22 332.61 216.56 332.8 216.85 333.04 217.15 333.3 217.44 333.56 217.71 333.82 217.97 334.09 218.24 334.38 218.47 334.71 218.7 335.01 218.93 335.34 219.12 335.67 219.32 336 219.49 336.33 219.65 336.69 219.78 337.05 219.91 337.42 220.05 337.78 220.15 338.17 220.24 338.54 220.31 338.93 220.34 339.29 220.41 339.69 220.41 340.08 220.44 340.44 220.41 340.84 220.41 341.24 220.34 341.6 220.31 341.99 220.21 342.39 220.15 342.75 220.05 343.11 219.91 343.51 219.78 343.87 219.65 344.2 219.42 345.25 219.16 346.31 218.93 347.33 218.63 348.38 218.33 349.4 218.04 350.43 217.71 351.45 217.38 352.47 217.02 353.49 216.65 354.48 216.29 355.5 215.9 356.49 215.47 357.47 215.04 358.43 214.58 359.42 214.12 360.37 213.66 361.33 213.16 362.28 212.67 363.24 212.14 364.16 211.71 365.05 211.25 365.9 210.79 366.73 210.3 367.58 209.8 368.41 209.27 369.23 208.75 370.05 208.19 370.85 207.63 371.63 207.07 372.43 206.47 373.18 205.88 373.94 205.29 374.7 204.66 375.46 205.09 375.79 205.55 376.15 205.98 376.54 206.44 376.94 206.84 377.33 207.26 377.73 207.66 378.16 208.06 378.58 208.42 379.01 208.78 379.47 209.14 379.94 209.47 380.4 209.8 380.89 210.56 380.1 211.28 379.31 212.01 378.52 212.7 377.69 213.39 376.87 214.08 376.05 214.74 375.23 215.4 374.37 216.06 373.51 216.69 372.62 217.31 371.77 217.91 370.88 218.5 369.99 219.09 369.07 219.65 368.18 220.21 367.25 220.74 366.33 221.76 365.01 222.78 363.7 223.8 362.38 224.79 361.03 225.78 359.68 226.77 358.33 227.72 356.95 228.64 355.6 229.6 354.21 230.49 352.83 231.41 351.41 232.3 350 233.19 348.58 234.05 347.16 236.85 343.44 239.65 339.75 242.48 336.06 245.34 332.41 248.21 328.72 250.19 327.57 252.2 326.45 254.17 325.33 256.18 324.21 258.23 323.12 260.24 322.07 262.28 320.98 264.32 319.96 266.36 318.91 268.44 317.88 270.48 316.9 272.56 315.91 274.66 314.95 276.74 313.96 278.81 313.04 280.92 312.12 283.03 311.2 284.12 310.57 285.17 309.95 286.29 309.35 287.38 308.79 288.47 308.2 289.59 307.64 290.71 307.12 291.83 306.59 292.98 306.06 294.1 305.57 295.25 305.11 296.4 304.61 297.56 304.18 298.71 303.72 299.9 303.29 301.05 302.9 302.24 302.5 303.42 302.11 304.61 301.75 305.79 301.42 306.98 301.09 308.2 300.76 309.38 300.46 310.6 300.17 311.82 299.9 313.04 299.64 314.26 299.38 315.48 299.18 316.7 298.95 317.92 298.75 319.17 298.58 320.39 298.42 321.61 298.25 322.86 298.12 324.11 298.02 325.33 297.93 326.25 297.69 327.14 297.5 328.03 297.27 328.95 297 329.84 296.74 330.7 296.48 331.59 296.18 332.48 295.85 333.33 295.52 334.19 295.19 335.08 294.83 335.9 294.47 336.76 294.07 337.58 293.68 338.44 293.25 339.26 292.82 340.05 292.36 340.88 291.93 341.67 291.44 342.46 290.94 343.25 290.45 344.04 289.95 344.8 289.43 345.55 288.87 346.28 288.31 347.04 287.75 347.76 287.16 348.45 286.56 349.34 285.67 350.2 284.82 351.09 283.96 352.01 283.11 352.9 282.25 353.82 281.43 354.78 280.63 355.7 279.81 356.65 279.02 357.61 278.26 358.6 277.51 359.59 276.75 360.57 276.02 361.6 275.3 362.58 274.57 363.61 273.88 364.66 273.19 365.68 272.53 366.74 271.87 367.79 271.25 368.88 270.62 369.34 270.52 369.77 270.46 370.23 270.36 370.65 270.23 371.08 270.1 371.51 269.93 371.94 269.77 372.37 269.6 372.76 269.4 373.19 269.21 373.59 268.98 373.98 268.75 374.35 268.48 374.71 268.22 375.07 267.95 375.43 267.66 375.76 267.36 376.09 267.03 376.42 266.7 376.72 266.37 377.01 266.01 378.79 265.22 380.6 264.4 382.38 263.64 384.19 262.85 386.01 262.09 387.82 261.37 389.63 260.64 391.44 259.92 393.29 259.23 395.1 258.54 396.94 257.88 398.79 257.22 400.63 256.59 402.51 255.97 404.35 255.34 406.23 254.75 408.08 254.19 409.95 253.63 411.83 253.07 413.71 252.54 415.62 252.01 417.5 251.52 419.41 251.03 421.29 250.56 423.2 250.1 425.11 249.64 427.02 249.21 428.93 248.82 432.95 247.44 436.97 246.09 440.99 244.74 445.04 243.42 449.06 242.1 453.11 240.82 457.16 239.53 461.21 238.25 465.26 237 469.31 235.74 469.55 234.95 469.78 234.16 470.01 233.37 470.27 232.58 470.53 231.82 470.8 231.03 471.13 230.28 471.42 229.52 471.75 228.76 472.12 228 472.44 227.28 472.84 226.52 473.24 225.8 473.63 225.1 474.03 224.38 474.45 223.69 474.92 223 475.34 222.31 475.84 221.61 476.3 220.96 476.79 220.3 477.32 219.64 477.52 219.41 477.71 219.18 477.95 218.95 478.21 218.75 478.44 218.55 478.7 218.35 478.97 218.19 479.23 218.02 479.53 217.86 479.82 217.73 480.09 217.63 480.42 217.5 480.71 217.43 481.01 217.33 481.34 217.3 481.63 217.23 481.96 217.2 482.26 217.2 482.59 217.2 482.92 217.2 483.22 217.23 483.55 217.27 483.84 217.33 484.17 217.43 484.5 217.46 484.86 217.53 485.19 217.6 485.52 217.69 485.85 217.83 486.18 217.96 486.51 218.09 486.84 218.25 487.14 218.42 487.43 218.62 487.73 218.81 487.99 219.01 488.26 219.24 488.52 219.47 488.78 219.7 489.01 219.9 489.21 220.16 489.44 220.4 489.64 220.66 489.81 220.92 490 221.19 490.13 221.48 490.27 221.78 490.4 222.07 490.53 222.37 490.6 222.67 490.69 223 490.76 223.29 490.79 223.62 490.83 223.95 490.99 223.79 491.15 223.62 491.29 223.43 491.42 223.23 491.55 223.03 491.65 222.83 491.75 222.63 491.81 222.41 491.88 222.17 491.91 221.94 491.95 221.71 491.98 221.48 491.95 221.25 491.95 221.02 491.88 220.23 491.81 219.44 491.75 218.68 491.65 217.89 491.55 217.1 491.42 216.34 491.25 215.55 491.12 214.8 491.09 214.53 491.09 214.27 491.09 214.04 491.12 213.78 491.15 213.51 491.22 213.28 491.29 213.02 491.39 212.79 491.49 212.56 491.58 212.33 491.71 212.1 491.88 211.87 492.01 211.67 492.18 211.47 492.34 211.31 493.36 211.07 494.38 210.88 495.4 210.71 496.43 210.55 497.45 210.38 498.5 210.25 499.52 210.15 500.54 210.05 501.6 209.96 502.62 209.89 503.64 209.82 504.69 209.79 505.72 209.76 506.77 209.76 507.36 209.72 507.96 209.72 508.55 209.76 509.14 209.76 509.73 209.82 510.33 209.89 510.92 209.96 511.51 210.05 512.07 210.19 512.67 210.28 513.26 210.45 513.82 210.61 514.38 210.78 514.94 210.98 515.5 211.21 516.06 211.44 516.59 211.67 517.15 211.93 517.44 212.43 517.74 212.92 518 213.41 518.3 213.94 518.53 214.43 518.79 214.96 518.99 215.49 519.22 216.05 519.42 216.57 519.58 217.13 519.75 217.66 519.91 218.22 520.21 219.47 520.47 220.72 520.74 221.98 520.97 223.23 521.2 224.48 521.4 225.76 521.59 227.02 521.76 228.27 521.92 229.55 522.09 230.84 522.22 232.09 522.35 233.37 522.45 234.66 522.52 235.91 522.58 237.19 522.71 238.15 522.81 239.1 522.98 240.06 523.11 240.98 523.31 241.94 523.5 242.89 523.7 243.81 523.93 244.74 524.16 245.66 524.29 246.02 524.43 246.41 524.49 246.78 524.59 247.14 524.66 247.53 524.69 247.9 524.72 248.29 524.72 248.69 524.72 249.05 524.72 249.44 524.69 249.84 524.62 250.2 524.56 250.6 523.93 251.06 523.31 251.55 522.68 252.01 522.02 252.47 521.36 252.9 520.7 253.33 520.01 253.73 519.35 254.16 518.66 254.52 517.97 254.91 517.25 255.24 516.55 255.6 515.83 255.93 515.1 256.23 514.38 256.56 513.62 256.82 512.9 257.12 512.14 257.35 511.38 257.61 510.62 257.84 509.87 258.04 509.11 258.24 508.35 258.4 507.79 258.5 507.26 258.57 506.74 258.7 506.21 258.8 505.68 258.96 505.16 259.1 504.66 259.26 504.13 259.46 503.64 259.65 503.15 259.88 502.65 260.12 502.19 260.38 501.7 260.64 501.24 260.91 500.81 261.2 500.44 261.43 500.05 261.66 499.69 261.89 499.29 262.06 498.9 262.26 498.47 262.42 498.07 262.55 497.68 262.69 497.25 262.82 496.82 262.92 496.39 263.01 495.96 263.08 495.54 263.15 495.11 263.18 494.68 263.18 494.22 263.21 493.79 263.18 493.36 263.15 492.93 263.11 492.51 263.05 492.08 262.98 491.65 262.88 491.22 262.78 490.79 262.65 490.4 262.52 489.97 262.39 489.34 262.16 488.69 261.96 488.06 261.7 487.43 261.47 486.81 261.2 486.21 260.91 485.59 260.61 485 260.31 484.4 259.98 483.81 259.62 483.25 259.29 482.85 259.13 482.43 259 482.03 258.86 481.6 258.73 481.21 258.63 480.78 258.57 480.35 258.5 479.92 258.44 479.49 258.4 479.07 258.37 478.64 258.37 478.21 258.37 477.78 258.4 477.35 258.44 476.93 258.5 476.5 258.57 476.07 258.67 475.67 258.76 475.25 258.86 474.85 259 474.13 259.29 473.4 259.62 472.68 259.95 471.98 260.31 471.26 260.68 470.57 261.07 469.91 261.47 469.22 261.86 468.56 262.29 467.9 262.75 467.24 263.18 466.61 263.64 465.99 264.13 462.83 266.18 459.63 268.22 456.47 270.26 453.27 272.27 450.04 274.28 446.85 276.25 445.73 276.98 444.58 277.7 443.49 278.43 442.37 279.19 441.28 279.94 440.19 280.73 439.11 281.52 438.02 282.35 436.97 283.14 435.94 283.99 434.89 284.82 433.87 285.71 432.85 286.56 431.86 287.45 430.84 288.34 429.88 289.26 428.9 290.19 427.22 291.73 425.5 293.31 423.79 294.83 422.04 296.38 420.3 297.89 418.55 299.38 416.77 300.89 415 302.34 413.22 303.82 411.4 305.27 410.65 305.9 409.89 306.56 409.1 307.15 408.31 307.77 407.48 308.37 406.69 308.96 405.87 309.52 405.05 310.08 404.19 310.64 403.37 311.17 402.51 311.69 401.62 312.19 400.76 312.68 399.87 313.14 398.99 313.6 398.1 314.06 397.21 314.49 396.28 314.92 395.36 315.32 394.47 315.71 393.52 316.07 392.59 316.44 391.67 316.8 390.72 317.13 389.76 317.42 388.81 317.72 387.85 318.02 386.89 318.28 385.91 318.54 384.95 318.77 383.96 319 383.01 319.2 381.66 319.7 380.34 320.19 379.02 320.72 377.74 321.24 376.42 321.8 375.13 322.36 373.85 322.96 372.53 323.52 371.28 324.14 370 324.77 368.75 325.39 367.49 326.02 366.24 326.68 364.99 327.37 363.84 328 362.68 328.59 361.53 329.18 360.38 329.74 359.22 330.3 358.04 330.83 356.85 331.36 355.67 331.88 354.48 332.38 353.26 332.87 352.04 333.33 350.86 333.76 349.61 334.19 348.52 334.58 347.46 334.98 346.38 335.41 345.32 335.83 344.24 336.3 343.18 336.76 342.13 337.25 341.11 337.75 340.05 338.27 339.03 338.8 338.01 339.33 336.92 339.95 335.8 340.61 334.72 341.27 333.63 341.93 332.54 342.62 331.49 343.31 330.43 344 329.38 344.73 328.32 345.45 327.3 346.21 326.28 346.97 325.26 347.72 324.24 348.51 323.25 349.31 322.26 350.13 321.28 350.92 320.32 351.77 319.37 352.6 317.75 355.56 316.1 358.49 314.46 361.43 312.81 364.36 311.13 367.25 309.45 370.15 307.74 373.05 306.02 375.95 304.28 378.81 302.53 381.68 300.75 384.55 298.97 387.41 297.2 390.24 295.38 393.08 295.48 393.41 295.55 393.74 295.65 394.06 295.68 394.39 295.71 394.72 295.75 395.08 295.78 395.42 295.75 395.74 295.75 396.11 295.71 396.44 295.65 396.76 295.68 397.32 295.71 397.85 295.75 398.41 295.81 398.97 295.88 399.5 295.98 400.06 295.48 400.45 294.99 400.92 294.53 401.34 294.03 401.84 293.61 402.3 293.14 402.79 292.71 403.29 292.32 403.78 291.89 404.31 291.53 404.83 291.13 405.36 290.77 405.92 290.44 406.48 290.11 407.04 289.78 407.6 289.49 408.19 289.19 408.79 288.89 409.38 288.66 409.97 288.4 410.6 288.17 411.19 287.97 411.82 287.77 412.44 287.58 413.07 287.41 413.69 287.25 414.35 287.12 414.98 287.02 415.64 286.92 416.3 286.82 416.92 286.75 417.58 286.72 418.24 286.65 418.9 286.65 419.56 286.36 419.56 286.06 419.59 285.76 419.62 285.5 419.69 285.2 419.75 284.94 419.85 284.64 419.95 284.38 420.08 284.12 420.21 283.89 420.35 283.62 420.51 283.39 420.68 283.16 420.84 282.96 421.04 282.73 421.27 282.54 421.47 282.01 422.85 281.51 424.23 280.99 425.65 280.53 427.03 280.03 428.45 279.61 429.87 279.14 431.25 278.71 432.7 278.32 434.11 277.93 435.53 277.53 436.98 277.17 438.39 276.84 439.85 276.51 441.29 276.18 442.74 275.88 444.19 275.59 445.64 275.32 447.09 275.06 448.54 274.83 450.02 274.6 451.47 274.4 452.95 274.2 454.4 274 455.88 273.84 457.37 273.71 458.81 273.58 460.3 273.48 461.78 273.38 463.26 273.28 464.74 273.28 466.49 273.21 468.27 273.18 470.01 273.12 471.79 273.02 473.54 272.92 475.32 272.82 477.06 272.69 478.84 272.52 480.59 272.36 482.33 272.19 484.11 272 485.86 271.76 487.6 271.53 489.35 271.3 491.09 271.04 491.98 270.78 492.87 270.48 493.76 270.18 494.65 269.89 495.51 269.56 496.39 269.19 497.25 268.83 498.11 268.47 498.96 268.24 499.06 268.01 499.13 267.78 499.16 267.55 499.23 267.32 499.23 267.09 499.23 266.86 499.23 266.59 499.19 266.36 499.16 266.13 499.1 265.93 499.03 265.7 498.93 265.47 498.8 265.27 498.7 265.08 498.57 264.91 498.4 264.71 498.24 264.55 498.07 264.42 497.88 264.29 497.68 264.15 497.48 264.02 497.28 263.96 497.05 263.63 496.53 263.33 496 263.07 495.47 262.8 494.91 262.54 494.35 262.31 493.83 262.08 493.23 261.85 492.67 261.65 492.11 261.49 491.52 261.39 491.19 261.29 490.89 261.16 490.56 261.03 490.27 260.86 489.97 260.7 489.68 260.53 489.38 260.33 489.12 260.14 488.85 259.91 488.59 259.68 488.36 259.44 488.13 259.31 488.89 259.18 489.68 259.05 490.47 258.95 491.26 258.88 492.05 258.79 492.84 258.75 493.63 258.72 494.45 258.72 495.21 258.72 495.97 258.79 496.76 258.82 497.51 258.88 498.27 258.98 499.03 259.08 499.82 259.18 500.58 259.31 501.33 259.48 501.99 259.64 502.69 259.77 503.38 259.91 504.07 260 504.76 260.07 505.45 260.14 506.14 260.17 506.87 260.2 507.56 260.24 508.25 260.17 508.94 260.1 509.6 260.04 510.29 260.04 510.99 260.04 511.68 260.04 512.34 260.07 513.03 259.61 513.23 259.15 513.39 258.65 513.52 258.19 513.65 257.7 513.78 257.2 513.88 256.71 513.95 256.22 514.05 255.72 514.08 255.23 514.11 254.73 514.15 254.24 514.15 253.75 514.15 253.25 514.11 253.51 515.4 253.78 516.68 254.07 517.97 254.37 519.22 254.67 520.5 255 521.75 255.36 523.04 255.72 524.29 256.08 525.54 256.18 525.81 256.28 526.07 256.38 526.33 256.45 526.63 256.48 526.89 256.51 527.19 256.55 527.45 256.51 527.75 256.51 528.01 256.48 528.31 256.41 528.57 256.35 528.87 256.28 529.13 256.18 529.4 256.05 529.66 255.95 529.89 255.79 530.15 255.62 530.38 255.33 530.48 255.03 530.55 254.7 530.62 254.37 530.65 254.07 530.68 253.75 530.68 253.42 530.68 253.12 530.68 252.79 530.62 252.46 530.58 252.16 530.52 251.87 530.42 251.54 530.32 251.24 530.19 250.94 530.05 250.68 529.92 250.39 529.76 250.12 529.56 249.89 529.36 249.63 529.17 249.4 528.97 249.17 528.74 248.97 528.51 248.51 527.95 248.08 527.42 247.68 526.89 247.29 526.33 246.89 525.74 246.53 525.18 246.17 524.59 245.81 524 245.48 523.4 245.18 522.81 244.85 522.18 244.59 521.56 244.29 520.93 244.03 520.31 243.8 519.65 243.57 519.02 243.34 518.36 243.14 518.07 242.91 517.77 242.68 517.51 242.45 517.24 242.18 516.98 241.89 516.75 241.62 516.52 241.33 516.29 241.03 516.09 240.7 515.89 240.4 515.73 240.07 515.56 239.75 515.4 239.38 515.27 239.05 515.17 238.69 515.04 238.33 514.97 238 514.9 238.1 514.54 238.16 514.18 238.23 513.82 238.3 513.42 238.33 513.06 238.33 512.7 238.33 512.3 238.33 511.94 238.3 511.58 238.23 511.18 238.16 510.82 238.06 510.46 237.97 510.1 237.87 509.77 237.74 509.4 237.57 509.07 237.41 508.71 237.24 508.42 237.04 508.09 236.81 507.76 236.58 507.46 236.32 507.07 236.06 506.64 235.82 506.21 235.59 505.78 235.36 505.32 235.17 504.89 234.97 504.43 234.8 503.97 234.64 503.48 234.51 503.01 234.38 502.52 234.28 502.06 234.18 501.57 234.08 501.07 234.01 500.58 233.98 500.08 233.95 499.59 233.95 499.1 233.95 498.6 233.52 498.54 233.09 498.47 232.66 498.37 232.24 498.27 231.81 498.14 231.41 498.01 231.02 497.84 230.62 497.68 230.22 497.48 229.83 497.28 229.47 497.05 229.07 496.82 228.74 496.59 228.38 496.33 228.05 496.06 227.72 495.77 227.39 495.47 227.26 495.14 227.16 494.81 227.06 494.45 226.96 494.12 226.9 493.76 226.87 493.4 226.83 493.07 226.8 492.71 226.8 492.34 226.8 491.98 226.83 491.65 226.8 490.6 226.8 489.58 226.8 488.52 226.83 487.5 226.87 486.45 226.93 485.43 227.03 484.41 227.13 483.35 227.1 482.99 227.06 482.63 227.03 482.23 226.93 481.87 226.87 481.51 226.77 481.15 226.63 480.82 226.5 480.45 226.37 480.13 226.21 479.76 226.01 479.43 225.81 479.14 225.61 478.81 225.38 478.51 225.15 478.25 224.89 477.95 224.66 477.69 224.36 477.42 224.1 477.19 224.13 476.44 224.2 475.64 224.26 474.89 224.36 474.13 224.46 473.37 224.59 472.58 224.72 471.82 224.89 471.07 225.09 470.34 225.25 469.58 225.48 468.83 225.68 468.1 225.94 467.38 226.17 466.65 226.44 465.93 226.73 465.2 227.03 464.48 227.36 463.79 227.69 463.1 228.02 462.4 228.38 461.71 228.78 461.06 229.93 458.88 231.08 456.71 232.24 454.5 233.35 452.33 234.44 450.12 233.98 450.35 233.49 450.62 233.03 450.85 232.56 451.14 232.1 451.44 231.64 451.73 231.21 452.03 230.78 452.36 230.36 452.69 229.96 453.05 229.57 453.41 229.17 453.78 228.54 454.53 227.95 455.23 227.33 455.95 226.67 456.64 226.01 457.33 225.35 457.99 224.69 458.65 224 459.31 223.31 459.97 222.42 460.66 221.53 461.38 220.64 462.08 219.75 462.77 218.86 463.46 217.94 464.12 217.77 464.22 217.61 464.32 217.44 464.42 217.25 464.48 217.05 464.55 216.88 464.58 216.69 464.58 216.49 464.61 216.29 464.58 216.09 464.58 215.9 464.51 215.73 464.48 215.53 464.38 215.37 464.32 215.2 464.22 215.04 464.08 214.91 463.95 214.78 463.82 214.64 463.69 214.51 463.52 214.41 463.36 214.35 463.16 214.28 463 214.12 462.34 213.99 461.65 213.85 460.99 213.23 461.62 212.57 462.24 211.94 462.9 211.35 463.56 210.72 464.22 210.16 464.91 209.57 465.6 209.01 466.32 208.48 467.05 207.96 467.77 205.98 470.38 204 472.98 201.99 475.58 200.35 477.52 198.7 479.43 197.02 481.34 195.34 483.22 193.63 485.1 191.91 486.98 191.68 486.98 191.45 486.98 191.22 486.94 190.99 486.91 190.76 486.84 190.53 486.75 190.33 486.68 190.1 486.55 189.91 486.45 189.71 486.32 189.54 486.15 189.34 486.02 189.18 485.86 189.05 485.66 188.88 485.46 188.78 485.26 188.65 485.06 188.55 484.87 188.46 484.64 188.39 484.41 188.36 484.18 188.29 483.94 187.96 484.34 187.6 484.7 187.2 485.06 186.84 485.39 186.45 485.72 186.05 486.05 185.62 486.35 185.19 486.65 184.77 486.94 184.34 487.21 183.88 487.44 183.41 487.67 182.95 487.9 182.49 488.13 182 488.33 181.54 488.49 181.04 488.65 180.55 488.79 180.06 488.92 179.56 489.05 179.03 489.15 178.54 489.25 178.05 489.31 177.52 489.38 176.99 489.41 176.5 489.41 175.97 489.44 175.48 489.41 174.95 489.41 174.42 489.35 174.16 489.77 173.86 490.17 173.6 490.6 173.37 491.03 173.1 491.49 172.91 491.92 172.71 492.38 172.51 492.84 172.35 493.33 172.18 493.79 172.05 494.29 171.92 494.75 171.69 495.44 171.49 496.13 171.29 496.82 171.13 497.51 170.96 498.24 170.83 498.93 170.7 499.65 170.6 500.35 170.5 501.07 170.4 501.8 170.37 502.49 170.31 503.21 170.21 503.9 170.11 504.6 169.97 505.29 169.81 505.98 169.65 506.67 169.48 507.33 169.28 508.02 169.09 508.68 168.85 509.34 168.59 510 168.36 510.66 168.06 511.31 167.8 511.94 167.47 512.6 167.18 513.23 166.85 513.82 166.48 514.44 165.69 514.54 164.9 514.67 164.11 514.81 163.32 514.97 162.53 515.13 161.74 515.33 161.57 514.9 161.41 514.48 161.21 514.08 161.01 513.65 160.82 513.26 160.59 512.86 160.36 512.47 160.09 512.11 159.83 511.74 159.57 511.38 159.27 511.02 158.97 510.69 158.78 510.33 158.58 509.96 158.35 509.63 158.12 509.31 157.89 508.98 157.62 508.65 157.33 508.35 157.06 508.05 156.77 507.79 156.44 507.53 156.11 507.26 155.78 507.03 155.45 506.8 155.09 506.61 154.72 506.41 154.36 506.21 154 506.05 153.6 505.91 153.57 506.21 153.47 506.51 153.41 506.8 153.27 507.1 153.18 507.36 153.04 507.63 152.88 507.92 152.71 508.15 152.55 508.42 152.35 508.65 152.15 508.88 151.96 509.11 151.72 509.31 151.5 509.5 151.26 509.7 151 509.9 150.77 510.06 150.51 510.19 150.24 510.33 149.98 510.46 149.68 510.56 149.42 510.66 149.12 510.75 148.83 510.82 148.53 510.89 148.23 510.92 147.94 510.92 147.64 510.95 147.31 510.75 147.01 510.59 146.72 510.39 146.42 510.19 146.13 510 145.86 509.77 145.6 509.5 145.34 509.27 145.1 509.01 144.87 508.75 144.64 508.48 144.44 508.19 144.28 507.95 144.12 507.76 143.95 507.56 143.75 507.36 143.56 507.2 143.32 507.03 143.13 506.9 142.9 506.77 142.67 506.64 142.4 506.54 142.17 506.44 141.91 506.37 141.65 506.31 141.38 506.27 141.12 506.24 140.85 506.24 140.59 506.24 140.33 506.27 140.06 506.31 139.44 506.51 138.84 506.74 138.25 506.97 137.66 507.2 137.07 507.46 136.51 507.76 135.91 508.02 135.35 508.35 134.79 508.65 134.27 508.98 133.71 509.34 133.51 507.92 133.28 506.51 133.11 505.06 132.92 503.64 132.78 502.22 132.62 500.81 132.49 499.36 132.39 497.94 132.29 496.49 132.22 495.08 132.16 493.63 132.09 492.21 132.06 490.76 132.06 489.35 132.06 487.9 132.06 486.48 132.09 485.03 132.16 483.62 132.22 482.17 132.29 480.75 132.39 479.3 132.49 477.88 132.62 476.47 132.75 475.02 132.92 473.6 133.11 472.19 133.28 470.77 133.51 469.32 133.71 467.91 133.94 466.52 134.2 465.11 134.46 463.69 134.76 462.27 135.06 460.89 135.35 459.47 135.68 458.09 136.18 455.62 136.67 453.15 137.16 450.68 137.66 448.21 138.19 445.74 138.75 443.3 139.31 440.83 139.9 438.39 140.46 435.96 141.09 433.49 141.71 431.05 142.34 428.61 142.96 426.21 143.62 424.07 144.25 421.93 144.91 419.82 145.6 417.68 146.29 415.57 146.98 413.46 147.71 411.36 148.43 409.28 149.16 407.17 149.91 405.1 150.7 402.99 150.87 401.97 151.07 400.92 151.2 399.86 151.33 398.81 151.46 397.79 151.56 396.73 151.66 395.68 151.72 394.62 151.79 393.57 151.82 392.52 151.86 391.46 151.86 390.38 151.86 389.32 151.82 388.27 151.79 387.21 151.72 386.16 151.66 385.11 151.56 384.05 151.46 383 151.36 381.94 151.17 381.42 150.94 380.86 150.7 380.33 150.47 379.8 150.21 379.28 149.95 378.78 149.65 378.29 149.32 377.79 149.02 377.3 148.69 376.81 148.33 376.35 147.97 375.88 147.61 375.46 147.21 375.03 146.82 374.6 146.42 374.17 145.99 373.78 145.56 373.38 145.1 373.02 144.64 372.66 144.18 372.29 143.72 371.96 143.23 371.67 142.73 371.34 142.57 371.27 142.37 371.17 142.21 371.07 142.04 370.94 141.91 370.81 141.74 370.68 141.65 370.52 141.51 370.35 141.41 370.19 141.35 370.02 141.28 369.82 141.22 369.63 141.18 369.43 141.15 369.23 141.15 369.03 141.18 368.84 141.22 368.64 141.25 368.44 141.32 368.24 141.38 368.08 141.48 367.91 141.58 367.72 141.71 367.58 142.01 367.19 142.3 366.79 142.63 366.4 142.96 366.04 143.29 365.67 143.36 365.61 143.46 365.54 143.52 365.44 143.56 365.35 143.59 365.25 143.62 365.15 143.62 365.05 143.59 364.92 143.59 364.82 143.52 364.72 143.49 364.62 143.42 364.55 143.36 364.49 143.26 364.42 143.16 364.36 141.74 364.52 140.36 364.65 138.94 364.79 137.56 364.92 136.14 364.98 134.73 365.08 133.31 365.11 131.9 365.18 130.51 365.18 129.09 365.18 127.68 365.18 126.26 365.15 124.84 365.11 123.43 365.05 120.07 364.79 116.71 364.55 113.35 364.36 109.96 364.16 106.6 363.96 103.24 363.8 99.84 363.67 96.48 363.53 93.12 363.43 89.73 363.34 86.37 363.24 82.98 363.17 79.62 363.14 78.53 363.2 77.44 363.24 76.36 363.24 75.27 363.27 74.18 363.24 73.09 363.24 72.01 363.17 70.95 363.14 69.87 363.07 68.78 362.97 67.69 362.87 66.61 362.74 65.55 362.61 64.46 362.48 63.41 362.31 62.32 362.12 61.27 361.92 60.18 361.72 59.13 361.49 58.07 361.26 57.02 361 55.96 360.73 55.57 360.6 55.14 360.44 54.75 360.27 54.35 360.11 53.95 359.91 53.56 359.71 53.2 359.48 52.8 359.25 52.47 359.02 52.11 358.76 51.78 358.46 51.42 358.2 51.12 357.9 50.79 357.61 50.5 357.27 50.23 356.95 49.94 356.62 49.67 356.25 49.44 355.89 49.18 355.53 48.98 355.17 48.75 354.77 48.55 354.38 48.39 353.98 48.22 353.59 48.06 353.16 47.93 352.76 47.8 352.33 47.7 351.91 47.6 351.48 47.53 351.05 47.47 350.62 47.43 350.19 47.3 349.6 47.2 349.01 47.1 348.42 47.04 347.82 46.97 347.2 46.91 346.6 46.87 346.01 46.87 345.42 46.87 344.79 46.87 344.2 46.91 343.61 46.97 342.98 47 342.39 47.1 341.8 47.2 341.2 47.3 340.61 47.43 340.02 47.56 339.42 47.73 338.87 47.93 338.27 48.16 337.68 48.42 337.12 48.68 336.56 48.95 336 49.24 335.44 49.54 334.91 49.87 334.35 50.2 333.82 50.53 333.3 50.89 332.8 51.25 332.31 51.65 331.82 52.04 331.32 52.44 330.86 52.87 330.4 53.3 329.94 53.72 329.48 54.19 329.05 54.61 328.62 55.11 328.23 55.57 327.83 56.95 326.71 58.34 325.62 59.72 324.54 61.14 323.45 62.55 322.4 63.97 321.34 65.39 320.32 66.83 319.3 68.28 318.28 69.73 317.29 71.18 316.3 72.67 315.32 74.15 314.36 75.63 313.4 77.15 312.48 78.63 311.56 79.85 310.77 81.1 309.98 82.32 309.22 83.57 308.46 84.82 307.74 86.07 307.02 87.36 306.32 88.64 305.63 89.93 304.94 91.21 304.28 92.5 303.62 93.81 303 95.13 302.37 96.45 301.78 97.77 301.19 99.12 300.63 100.44 300.07 101.79 299.51 103.14 298.98 104.52 298.49 104.65 298.39 104.82 298.32 104.98 298.25 105.15 298.22 105.34 298.22 105.51 298.22 105.67 298.22 105.87 298.25 106.04 298.32 106.2 298.39 106.33 298.45 106.5 298.55 106.63 298.68 106.76 298.81 109.17 301.58 112.23 301.22 115.33 300.86 118.39 300.53 121.48 300.2 124.55 299.9 127.64 299.61 130.71 299.34 133.81 299.08 136.9 298.85 139.97 298.62 143.06 298.42 146.16 298.22 149.25 298.06 152.35 297.89 155.41 297.73 158.51 297.63 161.61 297.5 164.7 297.4 167.8 297.33 170.9 297.27 173.99 297.2 174.92 297.27 175.81 297.33 176.73 297.37 177.65 297.37 178.54 297.37 179.46 297.37 180.38 297.33 181.27 297.27 182.2 297.2 183.12 297.13 184.01 297.04 184.93 296.9 185.82 296.77 186.71 296.61 187.63 296.44 188.52 296.28 189.41 296.08 190.3 295.85 191.19 295.62 192.05 295.39 192.94 295.13 193.79 294.83 194.68 294.53 195.54 294.24 196.36 293.91 197.65 293.28 198.93 292.66 200.22 292.03 201.47 291.37 202.72 290.68 203.97 290.02 205.19 289.3 206.44 288.61 207.66 287.88 208.88 287.12 210.06 286.37 211.28 285.61 212.47 284.82 213.62 284.03 214.81 283.2 215.96 282.38 216.56 281.99 217.15 281.59 217.74 281.23 218.37 280.87 218.99 280.54 219.62 280.21 220.24 279.88 220.9 279.58 221.56 279.28 222.22 279.02 222.88 278.76 223.54 278.53 224.23 278.3 224.89 278.1 225.58 277.9 226.27 277.74 226.96 277.57 227.66 277.44 228.35 277.31 229.07 277.21 229.76 277.11 230.49 277.05 230.88 277.54 231.28 278.03 231.71 278.53 232.14 278.99 232.56 279.45 233.03 279.91 233.49 280.34 233.98 280.77 234.47 281.19 234.97 281.59 235.46 281.99 235.99 282.35 236.52 282.71 237.04 283.07 237.6 283.4 238.16 283.73 238.72 284.03 239.28 284.32 239.88 284.59 240.47 284.85 241.06 285.08 241.66 285.31 242.25 285.54 242.88 285.74 243.47 285.9 244.09 286.07 244.72 286.23 245.34 286.37 245.97 286.5 246.6 286.6 247.26 286.66 247.88 286.73 248.51 286.79 249.17 286.83 249.79 286.83 250.45 286.83 251.08 286.83 251.74 286.79 252.36 286.76 252.99 286.69 253.65 286.6 254.27 286.5 254.9 286.4 256.22 287.32 257.53 288.21 258.88 289.1 260.2 289.99 261.55 290.88 262.94 291.73 262.9 290.91 262.84 290.09 262.77 289.3 262.71 288.47 262.61 287.68 262.48 286.86 262.34 286.07 262.21 285.28 262.05 284.49 261.88 283.7 261.68 282.91 261.49 282.12 261.26 281.33 261.03 280.57 260.76 279.78 260.5 279.02 260.2 278.26 259.91 277.51 259.61 276.75 259.28 275.99 258.95 275.27 258.75 274.81 258.59 274.34 258.42 273.88 258.29 273.39 258.16 272.93 258.06 272.43 257.96 271.94 257.9 271.45 257.83 270.95 257.76 270.46 257.73 269.96 257.73 269.47 257.73 268.98 257.73 268.48 257.76 267.99 257.83 267.49 257.9 267 257.96 266.5 258.06 266.04 258.19 265.55 258.29 265.06 258.46 264.6 258.62 264.13 258.79 263.67 259.28 263.97 259.74 264.27 260.2 264.6 260.66 264.92 261.12 265.29 261.55 265.65 261.98 266.01 262.38 266.41 262.8 266.8 263.17 267.23 263.56 267.63 263.92 268.09 264.29 268.51 264.62 268.98 264.95 269.44 265.24 269.93 265.54 270.39 265.83 270.89 266.1 271.38 266.36 271.91 266.59 272.4 266.82 272.93 267.15 273.69 267.48 274.44 267.81 275.2 268.11 275.99 268.4 276.75 268.67 277.54 268.9 278.33 269.13 279.12 269.36 279.91 269.56 280.7 269.75 281.52 269.92 282.31 270.08 283.14 270.22 283.96 270.35 284.75 270.45 285.57 270.55 286.4 270.61 287.22 270.68 288.05 270.71 288.87 270.74 289.69 270.74 290.51 270.74 291.34 270.71 292.16 270.68 292.99 270.61 293.81 270.55 294.63 270.45 295.46 270.35 296.28 270.22 297.1 270.08 297.93 269.92 298.72 269.75 299.54 269.56 300.33 269.36 301.12 269.13 301.94 268.9 302.73 268.67 303.52 268.4 304.28 268.11 305.07 267.81 305.83 267.55 306.32 267.29 306.79 266.99 307.25 266.69 307.68 266.36 308.14 266.03 308.56 265.7 308.96 265.34 309.39 264.98 309.78 264.62 310.18 264.22 310.54 263.83 310.9 263.43 311.26 263.2 310.84 263 310.41 262.84 309.98 262.64 309.52 262.51 309.09 262.34 308.63 262.24 308.17 262.11 307.71 262.01 307.25 261.95 306.79 261.88 306.29 261.82 305.83 261.78 305.37 261.78 304.88 261.75 304.41 261.78 303.92 261.78 303.46 261.85 303 261.88 302.5 261.95 302.04 262.05 301.58 262.15 301.12 262.28 300.66 262.41 299.87 262.51 299.08 262.64 298.29 262.71 297.5 262.8 296.71 262.87 295.92"/><polyline class="cls-6" points="233.81 218.06 232.74 217.89 231.66 217.75 230.56 217.59 229.49 217.49 228.41 217.35 227.34 217.29 226.24 217.22 225.16 217.15 224.09 217.12 222.99 217.09 221.92 217.09 220.81 217.09 219.74 217.12 218.63 217.15 217.56 217.22 216.49 217.29 215.38 217.39 214.31 217.49 213.24 217.62 212.17 217.75 211.09 217.89 210.02 218.09 208.95 218.26 207.88 218.46 206.81 218.69 205.77 218.93 204.69 219.19 203.66 219.46 202.58 219.73 201.54 220.03 200.51 220.37 199.47 220.7 198.46 221.04 197.42 221.41 196.42 221.81 195.38 222.18 194.38 222.61 193.4 223.01 192.4 223.48 191.43 223.92 190.42 224.39 189.45 224.89 188.51 225.39 187.54 225.9 186.6 226.43 185.66 226.97 184.73 227.54 183.79 228.11 182.88 228.71 181.98 229.31 181.07 229.91 180.2 230.55 179.33 231.19 178.46 231.82 177.59 232.49 176.75 233.2 175.91 233.87 175.08 234.6 174.27 235.31 173.47 236.04 172.66 236.78 171.89 237.55 171.12 238.32 170.39 239.09 169.62 239.86 168.88 240.67 168.18 241.5 167.47 242.31 166.77 243.15 166.1 243.98 165.43 244.85 164.76 245.73 164.12 246.6 163.48 247.47 162.88 248.37 162.25 249.28 162.34 250.52 162.45 251.79 162.55 253.03 162.68 254.27 162.81 255.51 162.98 256.75 163.15 257.99 163.35 259.23 163.55 260.46 163.79 261.7 164.02 262.91 164.29 264.15 164.56 265.36 164.86 266.6 165.16 267.8 165.46 269.01 165.8 270.21 166.16 271.42 166.53 272.62 166.94 273.8 167.3 275 167.74 276.18 168.18 277.35 168.61 278.52 169.08 279.69 169.55 280.83 170.05 281.97 170.55 283.14 171.09 284.28 171.63 285.39 172.19 286.53 172.73 287.63 173.34 288.74 173.94 289.84 174.54 290.95 175.18 292.02 176.05 292.05 176.92 292.09 177.79 292.09 178.66 292.05 179.53 292.02 180.4 291.99 181.28 291.92 182.15 291.85 183.02 291.75 183.89 291.62 184.76 291.48 185.6 291.35 186.47 291.18 187.31 291.01 188.18 290.81 189.01 290.58 189.85 290.38 190.69 290.11 191.53 289.84 192.37 289.57 193.17 289.27 194.01 288.97 195.25 288.37 196.49 287.77 197.69 287.13 198.93 286.49 200.14 285.86 201.34 285.19 202.55 284.52 203.76 283.81 204.93 283.11 206.1 282.37 207.27 281.63 208.45 280.9 209.59 280.13 210.72 279.36 211.86 278.59 212.97 277.78 213.64 277.35 214.28 276.91 214.95 276.51 215.58 276.11 216.29 275.74 216.96 275.37 217.66 275 218.36 274.67 219.07 274.33 219.77 274.03 220.47 273.73 221.21 273.46 221.95 273.19 222.69 272.96 223.42 272.73 224.16 272.52 224.93 272.32 225.67 272.15 226.44 271.99 227.21 271.82 227.98 271.69 228.75 271.59 229.52 271.49 230.29 271.42 231.06 271.35 231.83 271.29 232.6 271.25 233.37 271.25 233.78 271.35 234.21 271.45 234.61 271.55 234.98 271.69 235.38 271.85 235.79 272.02 236.16 272.19 236.52 272.39 236.89 272.59 237.23 272.79 237.5 272.96 237.73 273.09 238 273.23 238.27 273.33 238.53 273.43 238.8 273.53 239.07 273.6 239.37 273.63 239.64 273.66 239.94 273.7 240.21 273.7 240.51 273.7 240.78 273.66 241.08 273.63 241.35 273.56 241.62 273.5 241.88 273.39 242.15 273.29 242.42 273.19 242.69 273.06 243.26 272.36 243.86 271.65 244.46 270.98 245.1 270.31 245.74 269.68 246.37 269.01 247.04 268.4 247.71 267.77 248.42 267.16 249.09 266.56 249.79 265.99 250.53 265.42 251.23 264.89 251.97 264.32 252.74 263.81 253.48 263.28 254.25 262.78 255.02 262.31 255.79 261.84 256.59 261.37 256.86 261.17 257.16 260.93 257.43 260.77 257.73 260.56 258.03 260.4 258.37 260.26 258.67 260.1 259 259.96 259.34 259.86 259.68 259.76 260.01 259.69 260.04 258.66 260.08 257.62 260.14 256.58 260.21 255.54 260.31 254.5 260.41 253.46 260.55 252.46 260.68 251.42 260.85 250.38 261.05 249.38 261.25 248.37 261.42 247.74 261.55 247.1 261.72 246.5 261.82 245.86 261.95 245.22 262.02 244.55 262.12 243.92 262.15 243.28 262.22 242.64 262.22 242.01 262.25 241.34 262.25 240.7 262.22 240.06 262.19 239.43 262.12 238.76 262.05 238.12 261.99 237.49 261.89 236.85 261.75 236.21 261.62 235.58 261.58 234.67 261.52 233.73 261.45 232.79 261.35 231.89 261.22 230.95 261.08 230.05 260.95 229.11 260.78 228.21 260.61 227.3 260.41 226.4 260.21 225.49 259.98 224.59 259.74 223.68 259.47 222.81 259.21 221.91 258.9 221.04 258.6 220.17 258.3 219.3 257.97 218.43 257.6 217.55 257.23 216.72 256.86 215.88 256.46 215.04 256.06 214.2 255.62 213.37 255.19 212.56 255.22 212.83 255.22 213.1 255.19 213.37 255.15 213.63 255.12 213.87 255.05 214.14 254.98 214.41 254.88 214.64 254.78 214.91 254.65 215.14 254.51 215.38 254.38 215.58 254.21 215.81 254.05 216.01 253.84 216.21 253.68 216.38 253.44 216.55 253.24 216.72 253.01 216.85 252.71 216.21 252.37 215.61 252 214.97 251.67 214.37 251.3 213.77 250.9 213.2 250.5 212.6 250.09 212.03 249.66 211.46 249.69 211.72 249.69 211.99 249.66 212.26 249.62 212.53 249.59 212.8 249.52 213.06 249.46 213.33 249.35 213.57 249.25 213.8 249.12 214.07 248.99 214.27 248.85 214.51 248.69 214.71 248.52 214.94 248.32 215.11 248.15 215.31 247.91 215.48 247.71 215.65 247.48 215.78 247.14 215.18 246.78 214.57 246.37 214 246 213.43 245.57 212.86 245.17 212.29 244.9 212.7 244.63 213.06 244.36 213.4 244.06 213.74 243.76 214.07 243.46 214.41 243.12 214.71 242.79 215.01 242.42 215.31 242.05 215.58 241.68 215.84 241.31 216.08 240.91 216.31 240.54 216.55 240.14 216.75 239.71 216.95 239.3 217.12 238.87 217.29 238.47 217.45 238.03 217.59 237.6 217.69 237.13 217.79 236.69 217.89 236.25 217.96 235.79 218.02 235.35 218.06 234.88 218.09 234.45 218.09 233.98 218.09 233.54 218.06 233.07 218.02 232.64 217.96 232.2 217.89 231.73 217.79 231.3 217.69"/><polygon class="cls-6" points="313.64 60.91 312.38 59.75 311.11 58.59 309.88 57.43 308.65 56.24 307.42 55.04 306.22 53.82 305.02 52.59 303.83 51.37 302.66 50.14 301.5 48.88 300.37 47.62 299.2 46.33 298.11 45.04 296.98 43.75 295.88 42.46 294.78 41.13 293.72 39.81 292.65 38.45 291.62 37.12 290.56 35.77 289.56 34.37 288.53 33.02 287.53 31.62 286.56 30.23 285.6 28.81 284.63 27.39 283.7 25.96 282.77 24.54 281.84 23.11 280.94 21.65 280.05 20.2 279.18 18.71 278.31 17.25 277.48 15.76 276.65 14.27 276.58 14.07 276.52 13.9 276.49 13.7 276.45 13.51 276.42 13.27 276.42 13.07 276.45 12.88 276.49 12.68 276.52 12.48 276.58 12.31 276.65 12.11 276.75 11.95 276.85 11.75 276.99 11.58 277.12 11.45 277.25 11.29 277.42 11.15 277.58 11.05 277.75 10.96 277.92 10.86 278.12 10.79 278.31 10.72 278.51 10.66 278.71 10.62 278.91 10.62 279.11 10.62 279.31 10.62 279.51 10.66 279.71 10.72 279.91 10.76 280.08 10.86 280.28 10.92 280.44 11.05 280.61 11.15 280.78 11.29 280.91 11.42 281.04 11.58 281.14 11.75 282.07 12.91 283 14.04 283.97 15.2 284.93 16.29 285.9 17.41 286.9 18.51 287.89 19.6 288.89 20.69 289.92 21.75 290.95 22.81 291.99 23.84 293.05 24.87 294.12 25.89 295.21 26.89 296.31 27.88 297.41 28.88 298.54 29.84 299.64 30.8 300.8 31.76 301.93 32.69 303.1 33.58 304.26 34.51 305.46 35.4 306.62 36.26 307.82 37.12 309.05 37.98 310.25 38.81 311.48 39.64 312.71 40.47 313.97 41.26 315.24 42.03 316.5 42.79 317.76 43.55 319.06 44.28 320.33 45.01 321.62 45.74 325.81 48.25 329.97 50.77 334.13 53.32 338.25 55.87 342.41 58.46 346.54 61.04 350.66 63.66 354.75 66.27 358.88 68.89 362.97 71.54 367.03 74.19 371.12 76.87 375.18 79.56 379.23 82.27 383.29 84.99 387.32 87.7 391.34 90.45 395.37 93.2 399.39 95.99 403.38 98.77 407.37 101.55 411.33 104.37 415.32 107.18 419.28 110.03 423.24 112.88 427.17 115.73 431.09 118.61 435.01 121.49 438.94 124.41 440.44 125.67 441.97 126.92 443.43 128.18 444.93 129.47 446.39 130.77 447.85 132.09 449.32 133.42 450.75 134.74 452.18 136.1 453.61 137.46 455.01 138.82 456.4 140.21 457.77 141.6 459.13 143.02 460.49 144.41 461.82 145.87 463.15 147.3 464.49 148.75 465.78 150.21 467.08 151.7 468.38 153.19 469.64 154.68 470.9 156.17 472.14 157.7 473.37 159.22 474.6 160.78 475.8 162.3 476.96 163.86 478.16 165.45 479.32 167.04 480.45 168.63 481.62 170.22 482.71 171.81 483.84 173.43 484.91 175.06 486.01 176.71 487.07 178.33 488.13 179.99 489.17 181.68 490.2 183.34 490.46 183.73 490.7 184.16 490.93 184.56 491.16 184.99 491.36 185.42 491.56 185.85 491.76 186.32 491.93 186.75 492.06 187.21 492.19 187.68 492.33 188.14 492.43 188.6 492.49 189.07 492.59 189.53 492.63 190.03 492.69 190.49 492.69 190.99 492.73 191.45 492.69 191.91 492.69 192.41 492.63 192.88 492.59 193.37 492.53 193.84 492.43 194.3 492.33 194.76 492.19 195.23 492.06 195.69 491.93 196.16 491.76 196.59 491.59 197.05 491.39 197.48 491.19 197.91 490.96 198.34 490.73 198.77 490.46 199.17 490.2 199.57 489.93 199.96 489.43 199.93 488.93 199.87 488.47 199.8 487.97 199.7 487.47 199.6 487 199.47 486.54 199.34 486.04 199.17 485.57 199 485.14 198.84 484.68 198.64 484.21 198.41 483.78 198.21 483.35 197.94 482.91 197.71 482.51 197.45 482.08 197.15 481.68 196.85 481.32 196.55 480.92 196.25 480.55 195.92 480.19 195.56 479.85 195.23 479.52 194.86 479.19 194.47 478.89 194.1 478.59 193.7 478.29 193.31 478.02 192.88 477.76 192.44 477.52 192.01 477.29 191.58 477.06 191.15 476.03 189.43 475 187.74 473.93 186.05 472.87 184.36 471.8 182.71 470.71 181.05 469.61 179.39 468.48 177.74 467.35 176.12 466.18 174.49 465.02 172.87 463.85 171.28 462.66 169.66 461.46 168.1 460.26 166.51 459.03 164.95 457.77 163.4 456.54 161.84 455.27 160.31 453.97 158.79 452.68 157.27 451.38 155.74 450.08 154.25 448.75 152.76 447.39 151.3 446.06 149.85 444.69 148.39 443.3 146.97 441.93 145.51 440.54 144.12 439.11 142.69 437.71 141.3 436.25 139.91 434.81 138.55 433.35 137.19 431.89 135.84 430.43 134.51 428.93 133.19 427.43 131.89 425.9 130.57 424.4 129.31 422.87 128.02 421.31 126.76 419.78 125.5 418.22 124.27 416.62 123.05 415.06 121.86 413.46 120.63 411.86 119.47 410.23 118.28 408.64 117.12 407.01 115.99 405.35 114.87 403.71 113.74 402.05 112.61 400.39 111.56 398.69 110.46 397.03 109.4 395.33 108.34 393.64 107.31 391.91 106.29 390.18 105.29 388.48 104.3 386.72 103.31 384.99 102.35 383.23 101.39 381.46 100.46 379.7 99.53 377.94 98.6 376.14 97.71 374.38 96.85 372.58 95.99 370.75 95.13 368.95 94.3 367.13 93.47 365.33 92.67 363.5 91.88 362.17 90.75 360.84 89.63 359.51 88.53 358.18 87.44 356.81 86.35 355.45 85.29 354.05 84.23 352.69 83.2 351.29 82.17 349.86 81.18 348.47 80.15 347.04 79.16 345.61 78.2 344.18 77.24 342.71 76.28 341.25 75.35 339.78 74.42 338.32 73.53 336.82 72.63 335.33 71.74 333.83 70.88 332.33 70.02 330.8 69.19 329.27 68.36 327.74 67.56 326.21 66.77 324.65 65.97 323.12 65.21 321.56 64.45 319.99 63.72 318.4 62.99 316.83 62.27 315.24 61.57 313.64 60.91"/><polygon class="cls-6" points="511.96 262.89 511.18 263.1 510.39 263.3 509.63 263.54 508.84 263.81 508.09 264.08 507.3 264.35 506.54 264.65 505.79 264.99 505.06 265.3 504.31 265.67 503.58 266.01 502.86 266.38 502.63 266.45 502.4 266.55 502.2 266.65 501.98 266.75 501.78 266.89 501.61 267.02 501.42 267.19 501.25 267.36 501.12 267.56 500.99 267.73 500.86 267.94 500.76 268.17 500.66 268.38 500.56 268.61 500.53 268.85 500.46 269.09 500.43 269.32 500.46 270.47 500.53 271.63 500.6 272.74 500.69 273.89 500.79 275.04 500.92 276.19 501.06 277.31 501.19 278.46 501.35 279.61 501.51 280.73 501.71 281.85 501.91 283 502.14 284.12 502.53 285.4 502.93 286.65 503.29 287.94 503.62 289.23 503.95 290.51 504.27 291.8 504.57 293.12 504.87 294.41 505.13 295.73 505.39 297.01 505.62 298.33 505.85 299.65 506.08 300.97 506.28 302.29 506.44 303.61 506.61 304.93 506.74 306.25 506.87 307.57 507 308.93 507.1 310.25 507.23 311.4 507.33 312.58 507.4 313.73 507.46 314.92 507.53 316.1 507.56 317.25 507.59 318.44 507.59 319.59 507.59 320.77 507.56 321.96 507.53 323.11 507.46 324.3 507.4 325.45 507.3 326.63 507.2 327.78 507.1 328.97 506.97 330.12 506.81 331.3 506.64 332.45 506.48 333.6 506.28 334.75 506.05 335.91 505.62 337.97 505.16 340.07 504.67 342.13 504.18 344.2 503.65 346.26 503.13 348.33 502.6 350.36 502.04 352.43 501.48 354.46 500.89 356.49 500.27 358.52 499.64 360.55 499.02 362.58 498.36 364.61 497.7 366.61 496.09 370.81 494.52 375 492.97 379.2 491.43 383.4 489.88 387.6 488.37 391.79 486.89 396.02 485.42 400.25 483.97 404.49 482.29 410.21 480.65 415.96 479.01 421.68 477.4 427.44 475.82 433.16 474.24 438.91 472.67 444.67 471.12 450.45 469.58 456.21 469.05 458.07 468.56 459.97 468.03 461.86 467.57 463.76 467.11 465.65 466.65 467.55 466.23 469.44 465.8 471.34 465.4 473.27 465.01 475.17 464.65 477.09 464.29 479.02 463.93 480.92 463.6 482.85 463.3 484.78 463.01 486.71 462.74 488.64 462.48 490.6 462.22 492.53 461.99 494.46 461.79 496.42 461.56 498.35 461.4 500.31 461.23 502.25 461.07 504.21 460.94 506.14 460.8 508.1 460.71 510.06 460.8 511.86 460.87 513.69 461 515.48 461.1 517.31 461.26 519.1 461.4 520.93 461.56 522.72 461.76 524.52 461.95 526.35 462.18 528.14 462.41 529.93 462.64 531.73 462.91 533.52 462.97 533.66 463.07 533.79 463.14 533.93 463.24 534.03 463.37 534.13 463.5 534.23 463.63 534.3 463.76 534.33 463.89 534.37 464.06 534.4 464.19 534.4 465.01 534.33 465.83 534.27 466.62 534.16 467.44 534.03 468.23 533.89 468.53 533.76 468.79 533.62 469.05 533.45 469.31 533.28 469.58 533.08 469.81 532.88 470.04 532.64 470.24 532.4 470.43 532.17 470.63 531.9 470.79 531.63 470.96 531.36 471.09 531.09 471.22 530.78 471.35 530.48 471.42 530.17 471.52 529.87 471.65 529.12 471.75 528.34 471.85 527.6 471.94 526.85 472.01 526.08 472.07 525.33 472.11 524.59 472.14 523.81 472.14 523.06 472.14 522.28 472.11 521.54 472.07 520.76 472.01 520.02 471.98 518.26 471.98 516.53 472.01 514.8 472.04 513.04 472.07 511.32 472.14 509.56 472.24 507.83 472.34 506.1 472.44 504.34 472.57 502.62 472.73 500.89 472.9 499.16 473.06 497.44 473.26 495.68 473.45 493.95 473.69 492.23 473.92 490.53 474.18 488.81 474.44 487.08 474.74 485.35 475.03 483.66 475.36 481.94 475.69 480.24 476.05 478.52 476.41 476.82 476.81 475.13 477.2 473.44 477.6 471.75 478.02 470.09 478.48 468.39 478.94 466.7 479.4 465.04 479.89 463.38 480.42 461.73 480.91 460.07 481.47 458.41 482.03 456.75 482.59 455.13 483.15 453.5 483.77 451.88 484.36 450.25 484.99 448.63 485.64 447 486.3 445.41 486.96 443.82 487.65 442.23 488.34 440.64 489.06 439.05 489.79 437.49 490.54 435.93 491.3 434.38 492.77 430.96 494.25 427.54 495.7 424.15 497.14 420.73 498.59 417.28 500 413.86 501.42 410.41 502.8 406.96 504.14 403.5 505.52 400.05 506.87 396.6 508.19 393.11 509.5 389.63 510.78 386.14 512.06 382.65 513.34 379.17 514.59 375.68 515.81 372.16 517.06 368.64 518.24 365.12 518.73 363.56 519.19 362 519.65 360.45 520.11 358.89 520.54 357.3 520.93 355.71 521.33 354.15 521.72 352.56 522.08 350.97 522.41 349.38 522.74 347.79 523.07 346.16 523.37 344.57 523.66 342.95 523.92 341.36 524.15 339.73 524.38 338.14 524.61 336.51 524.81 334.89 525.01 333.27 525.17 331.64 525.34 330.02 525.47 328.39 525.6 326.77 525.7 325.14 525.8 323.48 525.86 321.86 525.93 320.23 525.96 318.61 525.99 316.98 525.99 315.32 525.99 313.7 525.96 312.08 525.93 310.45 525.86 308.79 525.8 307.17 525.7 305.54 525.6 303.92 525.47 302.29 525.34 300.67 525.21 299.04 525.01 297.42 524.84 295.79 524.65 294.17 524.42 292.54 524.19 290.92 523.92 289.33 523.66 287.7 523.4 286.11 523.1 284.49 522.77 282.9 522.45 281.31 522.12 279.71 521.76 278.12 521.36 276.53 520.97 274.94 520.57 273.35 520.15 271.79 519.72 270.2 519.26 268.65 518.77 267.09 518.57 266.68 518.37 266.24 518.11 265.84 517.88 265.43 517.62 265.02 517.48 264.82 517.35 264.58 517.19 264.35 517.02 264.14 516.83 263.94 516.66 263.77 516.43 263.6 516.24 263.43 516 263.26 515.77 263.13 515.54 263.03 515.32 262.93 515.05 262.82 514.82 262.72 514.56 262.69 514.3 262.62 514.03 262.59 513.77 262.59 513.51 262.55 513.25 262.59 512.98 262.62 512.72 262.65 512.46 262.72 512.23 262.79 511.96 262.89"/><polygon class="cls-2" points="505.82 140.83 500.2 136.09 494.41 131.6 488.43 127.38 482.37 123.34 476.05 119.65 469.64 116.13 463.05 112.88 456.37 109.89 451.28 105.23 446.36 100.31 441.7 95.21 437.22 89.93 432.92 84.48 428.79 78.94 424.93 73.23 421.24 67.34 417.81 61.27 417.29 59.95 417.02 58.63 417.02 57.23 417.2 55.82 417.64 54.5 418.34 53.27 419.22 52.22 420.27 51.25 421.41 50.55 422.73 50.02 424.14 49.76 425.54 49.76 426.95 49.93 428.26 50.46 429.41 51.07 430.55 51.95 431.43 53.01 435.03 57.4 438.81 61.54 442.76 65.58 446.89 69.36 451.19 72.96 455.67 76.39 460.24 79.65 465.07 82.64 469.9 85.45 487.12 96 504.15 106.81 521.02 117.8 537.71 129.05 554.22 140.57 570.65 152.35 586.9 164.31 592.96 169.4 598.84 174.85 604.55 180.39 610.09 186.11 615.44 192.09 620.63 198.24 625.46 204.48 630.2 210.99 634.68 217.58 638.9 224.35 640.21 226.55 641.18 228.83 641.79 231.29 642.23 233.75 642.23 236.22 641.97 238.77 641.44 241.23 640.48 243.51 639.34 245.8 643.38 245.18 647.33 244.83 651.37 244.74 654.36 244.74 657.34 245.18 660.24 245.89 662.96 246.85 665.6 248.17 667.09 250.28 668.23 252.57 669.2 254.94 669.99 257.4 671.04 262.33 671.84 267.25 672.45 272.26 672.8 277.27 673.33 280.96 674.12 284.57 674.65 286.41 674.91 288.35 674.91 290.37 674.65 292.31 674.12 294.24 671.66 296.26 669.02 298.11 666.21 299.69 663.4 301.18 664.72 302.68 665.86 304.35 666.74 306.11 667.36 307.95 667.79 309.98 669.46 317.1 670.87 324.31 671.92 331.51 672.8 338.81 673.33 346.19 673.59 353.49 673.5 360.88 673.15 368.17 672.54 375.47 671.66 382.77 670.43 390.06 668.94 397.18 667.18 404.3 665.16 411.43 662.79 418.37 660.24 425.23 657.34 432 654.27 438.59 650.84 445.1 642.06 465.58 632.92 485.89 630.55 492.13 628.36 498.37 626.42 504.7 624.75 511.12 623.35 517.62 622.12 524.13 621.15 531.42 620.45 538.72 619.92 546.11 619.75 553.49 619.84 560.79 619.84 562.63 619.66 564.39 619.13 566.06 618.43 567.73 617.46 569.23 616.32 570.55 614.92 571.69 613.42 572.66 612.02 573.36 610.44 573.89 608.86 574.06 607.27 573.98 605.69 573.62 604.2 572.92 602.88 572.04 601.65 570.9 600.77 569.67 599.99 568.17 599.11 562.19 598.4 556.22 598.05 550.24 597.96 544.17 598.14 538.19 599.63 526.94 601.48 515.78 603.5 504.7 605.87 493.62 608.42 482.63 611.32 471.64 614.48 460.83 617.82 450.02 621.5 439.29 625.37 428.66 628.36 422.77 631.08 416.7 633.45 410.55 635.65 404.3 637.58 397.98 639.16 391.56 640.57 385.05 641.62 378.55 642.41 371.95 642.94 365.36 643.2 358.77 643.2 352.08 642.85 345.49 642.23 338.9 641.36 332.31 640.04 327.82 638.98 323.16 638.28 318.5 637.75 313.84 637.58 309.1 637.14 308.31 636.52 307.69 635.82 307.25 634.94 307.07 630.73 305.67 626.69 303.82 625.02 303.38 623.35 303.21 621.68 303.21 618.25 303.91 614.92 304.88 611.75 306.19 605.17 309.89 598.67 313.75 592.25 317.89 587.42 320.79 582.68 323.95 578.11 327.38 573.81 330.99 565.29 338.72 556.51 346.28 552.82 349.45 548.95 352.44 544.91 355.25 540.7 357.71 536.39 359.91 531.82 361.75 527.26 363.34 523.22 364.3 519.35 365.54 515.49 367.12 511.8 368.96 503.28 373.27 494.67 377.4 485.27 380.92 480.62 383.12 475.96 385.58 471.57 388.3 467.26 391.29 463.22 394.46 458.31 402.81 453.56 411.43 449.17 420.04 444.95 428.83 441 437.71 437.31 446.77 433.89 455.91 430.72 465.14 427.83 474.37 425.19 483.78 422.82 493.18 420.71 502.77 418.87 512.26 417.37 521.93 416.06 531.6 415.09 541.27 413.07 542.94 411.23 544.88 409.64 546.99 408.33 549.27 407.27 551.73 406.48 554.28 405.6 556.66 405.08 559.12 404.81 561.67 404.81 564.22 405.08 566.77 405.34 568.17 405.43 569.58 405.25 570.99 404.81 572.3 404.2 573.62 403.32 574.77 402.35 575.73 401.12 576.52 399.89 577.14 398.49 577.49 397.08 577.58 395.68 577.49 394.27 577.14 392.95 576.52 391.81 575.73 390.76 574.77 389.97 573.62 381.54 558.94 372.93 544.44 370.82 541.53 368.98 538.46 367.39 535.21 365.99 531.95 364.94 528.52 364.23 525.01 363.7 521.49 363.53 517.89 364.06 513.32 364.94 508.83 366.17 504.35 362.65 507.07 359.23 509.98 355.98 513.05 353.34 516.74 350.44 520.26 347.37 523.6 344.12 526.77 340.69 529.75 337.53 531.78 334.28 533.62 330.94 535.12 327.43 536.35 323.83 537.32 321.46 542.5 319.26 547.78 317.33 553.14 315.66 558.59 314.34 559.73 312.85 560.7 311.18 561.4 309.51 561.84 307.75 562.02 306 561.93 304.33 561.58 299.06 559.38 293.7 557.53 288.25 555.95 286.85 555.25 285.27 554.9 283.69 554.72 282.11 554.9 280.52 555.34 279.03 555.95 277.71 556.83 276.57 557.98 275.61 559.21 274.9 560.61 274.38 562.19 273.23 554.9 272.27 547.51 271.74 540.22 271.39 532.83 271.48 525.45 271.83 518.06 272.44 510.68 273.41 503.29 274.64 496.08 276.22 488.79 278.15 481.67 280 473.58 282.19 465.49 284.56 457.58 287.2 449.67 290.01 441.84 290.89 439.56 291.42 437.18 291.68 434.81 291.77 432.35 291.5 429.98 291.06 427.6 290.36 425.31 289.31 423.03 288.17 420.92 286.67 418.99 285.09 417.23 282.98 415.64 280.79 414.24 278.42 413.1 275.96 412.22 273.41 411.69 270.77 411.34 267.44 411.25 252.94 410.28 238.54 409.67 224.05 409.31 218.95 409.49 213.86 409.23 208.76 408.7 203.76 407.91 198.75 406.68 196.64 405.89 194.62 404.83 192.69 403.51 191.02 402.02 189.53 400.26 188.38 398.33 187.42 396.22 186.72 394.02 186.28 391.73 185.84 389.01 185.66 386.19 185.75 383.38 186.19 380.66 186.8 377.93 187.86 375.29 189.18 372.83 190.67 370.46 192.43 368.17 194.36 366.15 196.47 364.3 202.09 359.82 207.97 355.51 213.94 351.47 220.01 347.6 225.1 344.44 230.28 341.54 235.64 338.81 241 336.35 246.62 334.15 247.85 333.62 249.17 333.45 250.49 333.45 251.8 333.71 253.03 334.24 254.17 334.94 255.14 335.82 255.67 336.44 265.15 335.47 266.65 328.96 267.96 322.46 268.93 315.87 269.72 309.27 270.25 302.68 270.6 296 270.51 289.23 270.07 282.46 269.37 275.69 268.93 273.49 268.84 271.29 268.93 269.1 269.37 266.9 270.16 264.79 271.13 262.77 272.36 260.92 273.85 259.25 275.52 257.75 277.36 256.52 279.38 255.56 281.49 254.85 283.69 254.41 285.88 254.33 288.17 254.41 290.8 254.77 293.44 255.38 295.98 256.26 298.36 257.49 300.64 258.99 302.66 260.66 304.59 262.68 306.17 264.79 308.37 264.7 310.48 264.88 312.58 265.32 314.69 265.93 316.71 266.81 318.56 267.87 320.31 269.18 324.27 266.46 328.48 264 332.79 261.8 337.18 259.87 341.66 258.11 346.31 256.7 350.97 255.47 355.71 254.59 360.54 253.89 365.37 253.53 370.2 253.45 375.04 253.62 379.78 254.15 384.61 254.85 389.35 255.91 394.01 257.14 398.58 258.72 403.06 260.48 407.45 262.59 409.47 275.95 410.26 291.16 409.56 295.38 409.2 299.6 416.14 310.85 417.55 314.19 418.69 317.62 419.57 321.05 420.18 324.66 420.62 328.17 420.71 331.78 420.45 335.38 420.01 338.99 419.31 342.5 418.25 345.93 417.02 349.36 415.53 351.29 425.1 346.99 429.58 344.52 434.24 342.24 438.98 340.22 443.9 338.37 448.82 336.79 453.82 335.56 458.83 334.5 464.01 333.71 469.11 333.18 472.8 332.22 476.4 330.9 479.82 329.4 483.16 327.56 486.32 325.54 489.4 323.16 493.44 319.21 497.74 315.51 502.22 312 506.97 308.74 511.88 305.84 513.29 305.67 514.78 305.23 516.1 304.44 517.15 303.47 518.12 302.24 525.5 298.9 533.05 295.82 540.78 292.92 548.51 290.37 556.33 288 564.24 285.89 572.14 284.04 590.85 277.8 609.65 271.91 610.88 268.57 612.37 265.32 614.04 262.24 615.97 259.25 618.08 256.35 620.71 254.06 623.61 251.95 626.6 250.19 629.76 248.61 627.65 247.91 625.63 247.03 623.79 245.89 621.94 244.57 620.36 243.07 618.87 241.4 617.64 239.56 616.59 237.62 612.19 230.59 607.54 223.65 602.71 216.88 597.61 210.37 592.25 203.95 586.72 197.71 581.01 191.73 575.04 185.93 568.89 180.39 562.57 175.03 555.98 169.93 549.3 165.01 542.36 160.35 535.34 155.95 528.13 151.73 520.84 147.87 513.38 144.17 505.82 140.83"/><polygon class="cls-7" points="375.81 317.96 372.73 318.44 369.71 319.19 366.8 320.25 364 321.66 361.36 323.3 356.7 326.48 351.87 329.46 346.94 332.24 341.87 334.77 338.31 336 334.65 337 330.92 337.68 327.15 338.09 323.38 338.19 319.62 338.02 301.09 338.57 302.05 327.37 304.07 316.08 305.71 304.71 306.98 293.31 308.35 294.1 309.79 294.64 311.33 294.92 312.9 294.95 314.44 294.71 314.51 298.82 314.89 302.93 315.51 306.97 316.4 310.98 317.56 314.95 318.96 318.78 320.64 322.55 322.53 326.18 324.68 329.7 327.05 333.06 330.33 332.68 333.59 332.06 336.77 331.21 339.89 330.15 344.72 327.72 349.41 325.08 354 322.24 358.45 319.19 361.02 317.55 363.72 316.14 366.5 314.98 369.41 314.06 372.35 313.37 375.36 312.96 378.41 312.79 379.85 314.98 381.56 316.97 383.51 318.68 385.53 320.01 387.73 321.11 389.99 321.93 392.38 322.48 391.63 320.6 391.19 318.64 391.05 316.62 391.19 314.64 391.6 312.65 392.28 310.77 393.24 309.02 394.44 307.41 395.84 305.98 397.45 304.78 399.23 303.82 401.12 303.13 402.69 302.11 404.47 301.49 405.98 296.32 405.84 293.89 405.4 291.46 404.68 289.13 403.72 286.91 402.49 284.78 401.01 282.83 402.14 280.81 403.03 278.65 403.65 276.43 403.99 274.13 404.09 271.84 403.89 269.51 403.41 267.25 403.48 268.73 403.24 270.2 402.76 271.57 402 272.87 401.05 274 399.92 274.92 400.88 273.55 401.63 272.05 402.11 270.47 402.38 268.83 402.35 267.15 402.07 265.51 401.53 263.9 400.77 262.43 401.08 263.59 401.12 264.79 400.88 265.95 400.4 267.05 399.68 268.01 398.75 268.79 394.57 266.67 390.23 264.79 385.81 263.21 381.25 261.91 376.67 260.92 372.01 260.2 367.32 259.79 362.59 259.69 357.9 259.89 353.21 260.41 348.55 261.19 343.96 262.29 339.48 263.66 335.06 265.34 330.78 267.29 326.6 269.51 322.6 271.98 318.76 274.72 317.32 273.49 315.71 272.46 313.96 271.7 312.15 271.16 310.27 270.88 308.38 270.88 306.5 271.12 304.65 271.64 303.45 269.34 301.98 267.22 300.23 265.3 298.25 263.66 296.06 262.25 293.73 261.43 291.26 260.89 288.8 260.65 286.3 260.71 283.83 261.09 281.4 261.74 280.03 262.8 278.8 264.04 277.77 265.44 276.95 266.98 276.33 268.62 275.99 270.3 275.85 272.05 275.99 273.79 276.74 280.06 277.22 286.39 277.46 292.73 277.43 299.06 277.15 305.36 276.16 314.54 274.79 323.64 273.11 332.68 271.91 336.65 270.95 340.66 255.1 342.37 252.7 339.63 252.22 339.25 251.64 339.05 251.03 339.08 250.48 339.29 245.1 341.45 239.83 343.81 234.69 346.41 229.66 349.25 224.76 352.3 218.8 356.06 212.98 360 207.33 364.14 201.78 368.49 199.76 370.34 197.95 372.36 196.37 374.59 195.04 376.95 193.98 379.48 193.39 382.26 193.12 385.1 193.22 387.94 193.67 390.75 193.98 392.53 194.52 394.2 195.31 395.81 196.34 397.29 197.54 398.59 198.97 399.72 200.52 400.61 202.19 401.22 206.82 402.32 211.51 403.07 216.23 403.55 220.96 403.76 225.72 403.62 240.24 403.96 254.79 404.58 269.31 405.54 274.24 405.68 279.14 405.61 284.04 405.33 288.93 404.85 289.24 405.09 289.38 405.47 289.31 405.85 289.07 406.15 287.5 408.04 287.12 408.69 286.95 409.44 287.02 410.19 287.32 410.88 287.84 411.43 288.52 411.8 290.41 413.1 292.15 414.61 293.73 416.32 295.06 418.21 296.19 420.23 297.08 422.35 297.46 426.56 297.6 430.74 297.46 434.95 297.08 439.13 296.43 443.3 292.39 454.77 288.76 466.38 286.06 476.89 283.66 487.47 281.5 498.08 280.27 503.66 279.31 509.28 278.59 514.96 278.11 520.64 277.91 526.33 277.94 532.04 278.21 537.73 278.76 543.41 279.55 549.06 281.54 547.9 283.66 546.87 285.85 546.08 287.08 546.01 288.32 546.36 289.38 547.01 290.2 547.93 291.13 549.03 292.19 549.95 293.38 550.67 294.75 550.5 296.06 550.02 297.22 549.27 298.21 548.24 298.93 547.04 299.34 545.67 300.99 546.46 302.46 547.52 303.69 548.89 304.65 550.43 305.78 551.83 306.71 553.37 307.43 555.05 312.15 554.16 313.49 551.52 314.58 548.75 315.4 545.91 315.95 543 316.23 540.16 316.74 537.32 317.53 534.58 318.14 532.7 318.96 530.88 320.06 529.2 322.25 529.27 324.41 529.03 326.53 528.52 328.59 527.73 330.5 526.67 332.29 525.37 333.83 523.83 334.07 524.65 334.48 525.4 335.06 526.02 335.78 526.5 336.6 526.77 337.46 526.84 347.49 515.51 353.38 507.74 356.15 504.21 359.27 500.96 359.68 502.98 360.02 503.63 360.54 504.14 361.22 504.48 361.94 504.59 362.66 504.45 363.31 504.07 368.65 499.96 371.7 496.99 374.51 493.84 376.12 492.4 377.86 491.17 379.75 490.17 374.1 501.02 372.56 504.04 371.32 507.19 370.4 510.44 369.75 513.73 369.44 517.12 370.47 518.08 371.29 519.21 371.9 520.47 372.32 521.84 372.45 523.25 372.18 527.35 372.18 531.46 372.14 532.76 372.35 534.06 372.73 535.3 374.17 536.46 375.74 537.38 377.45 538.04 379.23 538.41 379.34 540.26 379.64 542.11 380.16 543.92 380.91 545.64 381.9 547.25 382.73 548.55 383.31 549.99 383.58 551.52 383.58 553.1 383.27 554.61 384.54 554.95 385.74 555.46 386.84 556.18 387.79 557.04 388.62 558.07 389.61 560.77 390.91 563.37 392.42 565.84 394.2 568.13 395.05 568.99 396.08 569.64 397.21 570.08 398.41 570.32 399.64 570.29 400.84 570.01 401.32 569.16 401.63 568.16 401.73 567.17 401.6 566.18 401.29 565.22 399.71 559.57 398.44 553.82 398.03 552.38 398 550.02 398.17 547.62 397.93 544.16 397.28 540.74 396.8 537.32 396.66 533.89 396.9 530.74 397.38 527.59 398.27 528.59 398.96 529.75 399.4 530.98 400.46 533.83 401.87 536.5 402.31 537.28 402.93 537.93 403.72 538.41 404.61 538.62 405.5 538.62 406.39 538.38 407.93 534.54 409.2 530.57 410.02 524.03 410.63 517.49 411.01 510.92 411.18 504.35 411.63 498.05 412.38 491.78 413.41 485.55 414.74 479.35 416.35 473.26 418.24 467.23 420.39 461.31 421.22 460.49 422.21 459.91 423.31 459.53 424.47 459.39 424.64 456.62 425.15 453.88 425.91 451.21 426.97 448.68 428.31 446.25 429.88 443.95 431.69 441.86 433.75 439.98 433.51 438.34 433.44 436.73 433.51 434.88 433.13 433.03 441.42 419.81 449.36 406.39 457 392.77 461.38 389.1 465.94 385.68 470.66 382.5 475.56 379.59 479.33 377.67 483.16 375.96 487.1 374.49 492.34 372.5 497.44 370.24 502.41 367.67 508.23 364.66 514.22 361.95 520.32 359.56 524.73 358.5 529.08 357.09 533.29 355.38 537.37 353.39 541.27 351.1 545.04 348.53 548.6 345.69 557.44 338.33 566 330.66 570.18 326.86 574.56 323.27 579.11 319.91 583.84 316.83 602.88 304.74 606.54 302.79 610.31 301.11 614.21 299.71 618.18 298.62 620.38 298.34 622.6 298.27 624.83 298.44 627.02 298.82 631.95 301.08 633.7 301.83 635.58 302.28 637.46 302.45 639.38 302.31 641.23 301.9 643.01 301.22 645.92 300.12 648.7 298.65 662.43 293.34 663.42 292.83 664.31 292.14 664.96 291.22 665.41 290.19 665.58 289.1 665.51 287.97 665.48 283.72 665.1 279.48 665 277.01 664.62 274.58 663.97 272.18 663.39 267.15 662.53 262.15 661.47 257.22 660.85 255.99 660 254.89 658.97 254 657.77 253.32 656.47 252.87 655.1 252.67 653.73 252.74 647.98 252.98 642.19 252.91 640.92 252.81 639.69 252.98 638.53 253.42 637.46 254.14 636.61 255.06 635.99 256.13 635.62 257.32 635.55 258.59 635.72 259.82 635.99 261.06 635.96 262.29 635.65 263.49 635.07 264.58 634.25 265.51 633.22 266.23 633.42 264.96 633.39 263.73 633.15 262.5 632.7 261.33 632.02 260.27 630.86 259.48 629.55 258.93 628.18 258.66 626.64 258.76 625.17 259.17 623.8 259.86 622.57 260.82 621.58 261.98 619.86 264.58 618.42 267.36 617.26 270.23 616.34 273.21 615.72 276.29 601.51 280.61 587.33 285.16 573.22 289.88 565.65 291.63 558.12 293.58 550.66 295.81 543.26 298.27 535.93 300.94 528.71 303.85 521.58 307 520.28 308.41 518.78 309.57 517.13 310.5 515.35 311.18 513.5 311.59 509.08 314.3 504.84 317.24 500.76 320.42 496.89 323.85 493.2 327.48 490.29 329.74 487.2 331.82 484.02 333.67 480.7 335.32 477.27 336.69 473.75 337.85 470.18 338.74 464.64 339.32 459.16 340.21 453.71 341.41 448.37 342.92 443.1 344.73 437.96 346.86 432.96 349.25 428.1 351.96 419.23 355.93 410.5 360.14 401.9 364.66 393.44 369.42 379.34 387.73 375.23 394.27 370.81 400.64 366.12 406.81 363.72 410.67 361.12 414.37 358.28 417.93 355.23 421.29 353.72 419.3 352.01 417.49 350.09 415.88 352.9 412.35 355.4 408.58 357.56 404.65 359.54 400.88 361.29 397.01 362.76 393.01 364.03 388.93 365.02 384.79 365.54 383.21 365.78 381.57 365.74 379.89 365.37 378.25 364.71 376.68 363.82 375.27 362.69 374.07 361.32 373.05 359.82 372.29 358.21 371.85 356.56 371.68 356.63 373.29 356.46 374.86 356.02 376.4 355.33 377.84 354.44 379.18 353.35 380.34 352.08 381.33 350.67 382.08 347.87 383.21 344.99 384.14 342.08 384.86 339.1 385.37 339.2 384.58 339.07 383.8 338.69 383.11 337.56 382.32 336.33 381.85 334.96 381.64 333.62 381.74 332.32 382.15 330.98 383.28 329.75 384.52 328.69 385.92 328.38 386.54 327.9 387.08 327.29 387.43 326.6 387.6 325.88 387.56 326.26 386.06 326.36 384.52 326.23 382.94 325.85 381.44 325.2 380.03 324.38 378.73 321.94 379.35 319.58 380.27 317.39 381.44 315.3 382.87 309.34 388.97 303.25 394.96 302.12 393.31 300.71 391.84 299.14 390.61 297.36 389.65 295.47 388.93 293.52 388.52 291.5 388.42 285.99 389.48 280.44 390.23 274.82 390.75 269.21 390.95 263.59 390.85 258.01 390.51 252.43 389.82 246.88 388.9 241.4 387.67 237.71 386.26 239.59 385.27 241.57 384.58 243.63 384.14 245.72 383.97 247.84 384.07 253.12 384.76 258.46 385.2 263.76 385.37 269.11 385.3 274.41 384.96 279.72 384.41 285 383.59 290.24 382.53 294.93 379.04 299.75 375.79 304.75 372.74 309.86 369.9 315.1 367.33 320.44 364.97 325.88 362.88 331.43 361 337.05 359.39 342.73 358.05 346.22 359.52 349.85 360.76 353.55 361.71 357.32 362.4 361.12 362.81 364.95 362.91 367.21 363.43 369.51 363.63 371.84 363.53 374.1 363.12 376.29 362.37 378.38 361.34 380.3 360.07 382.97 358.29 385.47 356.31 387.79 354.15 389.95 351.79 391.9 349.25 393.65 346.55 396.66 342.61 399.92 338.88 403.34 335.28 406.97 331.89 400.09 327.27 397.62 327.61 395.16 327.72 392.66 327.58 390.19 327.17 387.79 326.52 385.47 325.63 383.24 324.5 381.15 323.16 379.2 321.62 377.38 319.88 375.81 317.96"/><polygon class="cls-7" points="412.26 315.09 410.56 312.11 408.59 309.3 406.38 306.68 403.93 304.27 404.2 307.15 404.78 309.99 405.66 312.74 406.83 315.37 408.1 318.86 409.1 322.42 409.82 326.06 410.25 329.74 410.4 333.44 410.25 337.14 409.83 340.81 409.17 343.54 408.74 346.31 408.54 349.11 408.56 351.9 410.26 350.28 411.74 348.46 412.97 346.46 414.07 343.44 414.93 340.31 415.52 337.14 415.84 333.93 415.9 330.7 415.69 327.47 415.22 324.29 414.49 321.14 413.51 318.07 412.26 315.09"/><polygon class="cls-7" points="654.8 302.61 651.78 303.5 648.83 304.64 645.94 305.99 645.23 306.3 644.6 306.75 644.09 307.38 643.76 308.07 643.59 308.86 643.89 313.66 644.43 318.47 645.27 323.24 646.71 328.21 647.92 333.22 648.86 338.34 649.6 343.45 650.07 348.6 650.47 353.61 650.57 358.62 650.37 363.63 649.87 368.61 649.06 373.55 647.35 381.08 645.43 388.58 643.29 396.01 640.93 403.37 634.09 421.72 627.57 440.17 620.42 465.23 613.6 490.42 611.62 497.75 609.91 505.11 608.43 512.57 607.19 520.03 606.22 527.57 605.48 535.13 604.98 542.7 605.41 550.34 606.12 557.94 607.12 565.51 607.39 565.99 607.86 566.27 608.37 566.37 612.29 565.89 613.4 565.23 614.34 564.3 615.05 563.19 615.48 561.95 615.92 558.77 616.09 555.59 615.96 552.38 615.99 545.19 616.32 538.04 616.93 530.85 617.84 523.73 618.98 516.65 620.42 509.63 622.13 502.65 624.11 495.77 626.36 488.97 628.88 482.26 631.67 475.66 634.69 469.2 640.4 455.93 645.87 442.56 651.14 429.12 656.14 415.57 660.91 401.92 662.76 395.74 664.34 389.51 665.65 383.19 666.72 376.83 667.56 370.44 668.1 364.01 668.4 357.58 668.43 351.12 668.2 344.66 667.73 338.23 666.99 331.84 665.98 325.48 664.71 319.16 663.2 312.87 661.45 306.68 660.31 304.71 659.71 303.82 658.9 303.09 657.96 302.57 656.92 302.33 655.84 302.33 654.8 302.61"/><polygon class="cls-7" points="460.35 104.97 454.9 99.85 449.7 94.49 444.67 88.95 439.92 83.17 435.42 77.22 431.16 71.09 427.15 64.79 423.41 58.32 423.2 57.48 423.27 56.65 423.59 55.88 424.14 55.22 424.88 54.8 425.72 54.66 426.59 54.8 427.32 55.18 427.92 55.81 431.69 60.34 435.63 64.72 439.78 68.94 444.15 72.94 448.65 76.73 453.36 80.32 458.22 83.7 463.21 86.86 468.34 89.79 485.55 100.3 502.59 111.06 519.48 122.1 536.24 133.34 552.82 144.8 569.23 156.53 585.5 168.47 591.47 173.55 597.3 178.81 602.92 184.28 608.36 189.91 613.6 195.76 618.66 201.75 623.48 207.95 628.09 214.28 632.49 220.76 636.67 227.41 637.69 229.12 638.42 230.93 638.94 232.81 639.19 234.79 639.15 236.74 638.84 238.69 638.28 240.57 637.48 242.38 636.43 244.02 634.41 243.74 632.42 243.22 630.57 242.41 628.78 241.37 627.18 240.12 625.78 238.66 624.56 236.98 623.58 235.21 619.08 227.97 614.37 220.9 609.38 214.01 604.17 207.29 598.73 200.74 593.04 194.41 587.17 188.24 581.06 182.33 574.75 176.58 568.25 171.12 561.55 165.82 554.67 160.81 547.62 156.01 540.43 151.48 533.06 147.2 525.56 143.19 517.91 139.44 510.13 135.92 504.47 131.22 498.64 126.73 492.64 122.48 486.46 118.48 480.14 114.72 473.68 111.2 467.08 107.96 460.35 104.97"/><polygon class="cls-8" points="106.29 141.45 134.88 289.38 89.89 270.9 98.75 200.98 100.04 200.98 99.23 197.21 106.29 141.45"/><polygon class="cls-8" points="99.23 197.21 100.04 200.98 98.75 200.98 99.23 197.21"/><polygon class="cls-8" points="72.45 73.36 99.23 197.21 98.75 200.98 45.84 200.98 45.51 197.93 72.45 73.36"/><polygon class="cls-8" points="45.84 200.98 55.48 289.38 0 346.09 39.49 142.72 45.51 197.93 44.85 200.98 45.84 200.98"/><polygon class="cls-8" points="45.51 197.93 45.84 200.98 44.85 200.98 45.51 197.93"/><line class="cls-9" y1="346.09" x2="39.49" y2="142.72"/><line class="cls-9" x1="55.48" y1="289.38" x2="45.84" y2="200.98"/><line class="cls-9" x1="45.51" y1="197.93" x2="39.49" y2="142.72"/><line class="cls-9" x1="55.48" y1="289.38" y2="346.09"/><line class="cls-9" x1="106.29" y1="141.45" x2="99.23" y2="197.21"/><line class="cls-9" x1="98.75" y1="200.98" x2="89.89" y2="270.9"/><line class="cls-9" x1="106.29" y1="141.45" x2="134.88" y2="289.38"/><line class="cls-9" x1="134.88" y1="289.38" x2="89.89" y2="270.9"/><line class="cls-9" x1="45.84" y1="200.98" x2="44.85" y2="200.98"/><line class="cls-9" x1="100.04" y1="200.98" x2="98.75" y2="200.98"/><line class="cls-9" x1="45.51" y1="197.93" x2="44.85" y2="200.98"/><polygon class="cls-9" points="99.23 197.21 98.75 200.98 45.84 200.98 45.51 197.93 72.45 73.36 99.23 197.21"/><line class="cls-9" x1="100.04" y1="200.98" x2="99.23" y2="197.21"/></svg>