<?xml version="1.0" encoding="UTF-8"?>
<svg id="Calque_1" data-name="Calque 1" xmlns="http://www.w3.org/2000/svg" viewBox="0 0 317.16 167.41">
  <defs>
    <style>
      .cls-1 {
        fill: #cc333d;
      }

      .cls-2 {
        fill: #3e55ab;
      }

      .cls-3 {
        fill: #fdd20e;
      }

      .cls-4 {
        fill: #3b3d3f;
      }
    </style>
  </defs>
  <path class="cls-4" d="M104.55,103.04L0,96.38v35.41c25.14,10.85,65.83,26.87,100.91,28.27,43.59,1.74,76.35-7.19,124.88-7.19,42.67,0,59.3,12.75,91.36,14.54v-48.75l-212.61-15.63Z"/>
  <path class="cls-2" d="M104.55,86.7L0,80.04v35.41c25.14,10.85,65.83,26.87,100.91,28.27,43.59,1.74,76.35-7.19,124.88-7.19,42.67,0,59.3,12.75,91.36,14.54v-48.75l-212.61-15.63Z"/>
  <path class="cls-1" d="M100.22,70.58L0,64.2v36.99c25.31,10.73,63.45,25.09,96.59,26.42,43.59,1.74,76.35-7.19,124.88-7.19,44.54,0,60.72,13.89,95.69,14.7v-48.59l-216.94-15.94Z"/>
  <path class="cls-3" d="M96.05,53.64L0,47.52v38.47c25.21,10.48,61.05,23.41,92.42,24.67,43.58,1.74,76.35-7.19,124.88-7.19s61.93,14.99,99.86,14.73v-48.32L96.05,53.64Z"/>
  <path class="cls-4" d="M208.8,6.75c-43.59-1.75-76.35,7.22-124.88,7.22C44.68,13.96,27.46,3.13,0,0V48.85l205.17,15.14,111.99,7.16V38.38c-23.89-10.58-69.54-30.08-108.35-31.64Z"/>
  <path class="cls-2" d="M208.8,23.15c-43.59-1.75-76.35,7.22-124.88,7.22C44.68,30.36,27.46,19.54,0,16.4v48.85l205.17,15.14,111.99,7.16V54.79c-23.89-10.58-69.54-30.08-108.35-31.64Z"/>
  <path class="cls-1" d="M213.13,39.33c-43.59-1.75-76.35,7.22-124.88,7.22-41.26,0-58.18-11.97-88.25-14.38v48.95l209.5,15.46,107.66,6.88v-34.39c-24.78-10.86-67.44-28.26-104.03-29.73Z"/>
  <path class="cls-3" d="M217.3,56.33c-43.58-1.75-76.35,7.22-124.88,7.22-43.13,0-59.66-13.07-92.42-14.64v35.26l101.08,11.42,125.19,2.25,90.89,19.83v-33.42c-25.21-10.88-65.25-26.53-99.86-27.92Z"/>
</svg>