<svg width="1920" height="333" xmlns="http://www.w3.org/2000/svg" fill="none">

 <g>
  <title>Layer 1</title>
  <path id="svg_1" fill="#3B3D3F" d="m1410.54538,284.924c-313.99,0 -525.996,31.536 -807.995,25.383c-282,-6.154 -620.0004,-91.916 -751.5,-123.453c-127.351,-30.541 -50.167,-80.314 -0.001,-104.8l775.001,26.921l1577.495,63.265c-10.83,55.445 -41.6,164.219 -110,164.219c-273,6.73 -369,-51.535 -683,-51.535z"/>
  <path id="svg_2" fill="#3E55AB" d="m1410.54538,227.236c-313.99,0 -525.996,31.536 -807.995,25.383c-282,-6.154 -620.0004,-91.917 -751.5,-123.453c-127.351,-30.541 -50.167,-80.314 -0.001,-104.8l775.001,26.921l1577.495,63.265c-10.83,55.445 -41.6,164.219 -110,164.219c-273,6.73 -369,-51.535 -683,-51.535z"/>
  <path id="svg_3" fill="#CC333D" d="m1382.54538,170.317c-313.99,0 -525.996,31.536 -807.995,25.383c-282,-6.154 -620.0004,-91.916 -751.5,-123.453c-127.351,-30.541 -50.167,-80.314 -0.001,-104.8l775.001,26.921l1577.495,63.265c-10.83,55.445 -41.6,164.219 -110,164.219c-273,6.73 -369,-51.535 -683,-51.535z"/>
  <path id="svg_4" fill="#FDD20E" d="m1355.58538,110.514c-314,0 -526.003,31.536 -808.003,25.383c-281.999,-6.154 -619.9997,-91.917 -751.5,-123.453c-127.35,-30.541 -50.166,-80.315 0,-104.8l775,26.921l1577.503,63.265c-10.84,55.444 -41.6,164.218 -110,164.218c-273,6.731 -369,-51.534 -683,-51.534z"/>
 </g>
</svg>