<svg width="1920" height="815" xmlns="http://www.w3.org/2000/svg" fill="none">

 <g>
  <title>Layer 1</title>
  <path id="svg_1" fill="#3B3D3F" d="m1444.152,699.68049c-314,0 -526.003,82 -808.003,66c-281.999,-16 -619.9997,-239 -751.5,-321c-127.35,-79.412 -50.166,-208.833 0,-272.5l775,70l1577.503,164.5c-10.84,144.167 -41.6,427 -110,427c-273,17.5 -369,-134 -683,-134z"/>
  <path id="svg_2" fill="#3E55AB" d="m1444.152,549.68049c-314,0 -526.003,82 -808.003,66c-281.999,-16 -619.9997,-239 -751.5,-321c-127.35,-79.412 -50.166,-208.833 0,-272.5l775,70l1577.503,164.5c-10.84,144.167 -41.6,427 -110,427c-273,17.5 -369,-134 -683,-134z"/>
  <path id="svg_3" fill="#CC333D" d="m1416.152,401.68049c-314,0 -526.003,82 -808.003,66c-281.999,-16 -619.9997,-239 -751.5,-321c-127.35,-79.412 -50.166,-208.833 0,-272.5l775,70l1577.503,164.5c-10.84,144.167 -41.6,427 -110,427c-273,17.5 -369,-134 -683,-134z"/>
  <path id="svg_4" fill="#FDD20E" d="m1389.182,246.18049c-314,0 -526,82 -808,66c-282,-16 -619.9999,-239 -751.5,-321c-127.35,-79.412 -50.167,-208.8333 0,-272.5l775,70l1577.5,164.5c-10.83,144.167 -41.6,427 -110,427c-273,17.5 -369,-134 -683,-134z"/>
 </g>
</svg>