<svg width="1920" height="181" xmlns="http://www.w3.org/2000/svg" fill="none">

 <g>
  <title>Layer 1</title>
  <path id="svg_1" fill="#3B3D3F" d="m1392.59667,132.59067c-313.99,0 -525.996,31.536 -807.995,25.383c-282,-6.154 -620.0004,-91.916 -751.5,-123.453c-127.351,-30.541 -50.167,-80.314 -0.001,-104.7996l775.001,26.9206l1577.495,63.265c-10.83,55.445 -41.6,164.219 -110,164.219c-273,6.73 -369,-51.535 -683,-51.535z"/>
  <path id="svg_2" fill="#3E55AB" d="m1392.59667,114.90267c-313.99,0 -525.996,31.536 -807.995,25.383c-282,-6.154 -620.0004,-91.917 -751.5,-123.453c-127.351,-30.541 -50.167,-80.3143 -0.001,-104.7997l775.001,26.9207l1577.495,63.265c-10.83,55.445 -41.6,164.219 -110,164.219c-273,6.73 -369,-51.535 -683,-51.535z"/>
  <path id="svg_3" fill="#CC333D" d="m1364.59667,97.98367c-313.99,0 -525.996,31.536 -807.995,25.383c-282,-6.154 -620.0004,-91.916 -751.5,-123.453c-127.351,-30.541 -50.167,-80.3143 -0.001,-104.7996l775.001,26.9211l1577.495,63.2645c-10.83,55.445 -41.6,164.219 -110,164.219c-273,6.73 -369,-51.535 -683,-51.535z"/>
  <path id="svg_4" fill="#FDD20E" d="m1337.63667,78.18067c-314,0 -526.003,31.536 -808.003,25.383c-281.999,-6.154 -619.9997,-91.917 -751.5,-123.453c-127.35,-30.541 -50.166,-80.3146 0,-104.8l775,26.9211l1577.503,63.2649c-10.84,55.444 -41.6,164.218 -110,164.218c-273,6.731 -369,-51.534 -683,-51.534z"/>
 </g>
</svg>